<svg data-bbox="38.001 34.5 123.999 130.999" viewBox="0 0 200 200" height="200" width="200" xmlns="http://www.w3.org/2000/svg" data-type="color">
    <g>
        <path d="M115.25 100.214c-.109-8.032-4.035-13.459-10.001-13.824-3.687-.227-7.072 1.38-9.066 4.295-2.877 4.207-9.181 11.396-19.076 12.271-7.31.653-11.988-3.186-16.512-6.894-3.964-3.248-8.085-6.611-13.506-6.124-3.286.291-5.958 2.299-7.525 5.657-3.022 6.476-1.547 16.683 3.434 23.741 4.05 5.739 9.903 8.824 16.639 8.824.662 0 1.333-.03 2.011-.09 2.85-.253 8.943-.791 16.632-6.613 5.876 2.938 11.475 4.127 17.065 3.631 12.657-1.121 20.06-13.527 19.905-24.874z" fill="#000010" data-color="1"/>
        <path d="M61.259 123.731c-7.634.681-12.196-3.379-14.681-6.899-4.56-6.462-5.129-14.939-3.046-19.403.906-1.941 2.233-3.002 3.943-3.153.213-.019.424-.028.632-.028 3.39 0 6.331 2.411 9.705 5.176 4.717 3.865 10.593 8.674 19.681 7.87 4.306-.381 8.016-1.744 11.15-3.557-5.914 8.765-15.147 18.911-27.384 19.994z" fill="#F9B233" data-color="2"/>
        <path d="M81.947 118.365c5.224-4.858 11.002-12.207 16.896-23.367.474-.897 1.01-1.91 1.202-2.192 1.142-1.424 2.964-2.19 4.936-2.07 4.254.261 5.834 5.098 5.895 9.536.107 7.908-4.76 19.489-15.919 20.477-4.23.375-8.509-.407-13.01-2.384z" fill="#F9B233" data-color="2"/>
        <path d="M115.941 75.077c1.211 5.466 3.438 9.821 6.786 13.284 3.598 3.721 8.248 5.316 12.964 5.316 5.371 0 10.826-2.07 14.902-5.426 5.475-4.509 7.032-10.209 3.965-14.521-1.896-2.663-4.905-4.107-8.046-3.854-4.325.345-12.45.022-18.279-6.006-4.285-4.431-4.227-9.548-4.171-14.495.05-4.451.103-9.053-3.241-12.511-2.045-2.114-4.938-2.844-8.153-2.052-6.081 1.498-12.244 8.069-14.337 15.285-1.875 6.467-.367 12.655 4.243 17.424 1.711 1.769 5.355 5.538 13.367 7.556z" fill="#000010" data-color="1"/>
        <path d="M145.127 74.578c.839-.164 1.785-.348 2.076-.374h.002c1.466 0 2.86.747 3.782 2.044 1.993 2.802-.337 6.304-3.183 8.648-5.168 4.254-15.386 7.208-21.924.447-2.398-2.48-4.114-5.564-5.203-9.369 6.06.797 14.009.641 24.45-1.396z" fill="#F9B233" data-color="2"/>
        <path d="M102.536 51.304c1.834-6.326 7.234-11.292 11.183-12.264a5.988 5.988 0 0 1 1.423-.187c1.528 0 2.249.745 2.524 1.03 2.101 2.173 2.065 5.38 2.019 9.441-.06 5.279-.133 11.849 5.393 17.565a23.141 23.141 0 0 0 7.311 5.092c-8.814.599-19.768-.351-26.662-7.48-4.462-4.615-4.199-9.724-3.191-13.197z" fill="#F9B233" data-color="2"/>
        <path d="M51.178 70.039c3.063 2.169 6.67 3.394 10.993 3.73 1.592 3.564 3.933 6.838 7.357 9.262 2.532 1.792 5.321 2.697 8.185 2.697 2.055 0 4.147-.466 6.207-1.404 5.466-2.488 9.944-8.112 10.417-13.082.26-2.723-.704-5.007-2.716-6.43-3.209-2.273-6.847-1.691-10.367-1.128-3.878.619-7.539 1.204-11.274-1.441-5.142-3.64-6.284-9.639-6.507-12.891a7.077 7.077 0 0 0-.055-.523c-.339-2.381-1.842-4.441-4.102-5.578-3.916-1.974-8.382-.062-11.371 4.867-4.096 6.75-4.006 16.796 3.233 21.921z" fill="#000010" data-color="1"/>
        <path d="M67.444 65.791c5.198 3.68 10.359 2.856 14.505 2.192 3.343-.534 5.473-.801 7.137.377.262.186 1.06.75.896 2.47-.285 2.989-3.379 7.484-7.881 9.533-2.441 1.112-6.163 1.86-10.036-.882-5.573-3.945-7.68-11.006-8.42-17.292a18.243 18.243 0 0 0 3.799 3.602z" fill="#F9B233" data-color="2"/>
        <path d="M51.69 50.368c.402-.662 2.265-3.52 4.47-3.52.386 0 .782.087 1.182.289.953.479 1.588 1.314 1.738 2.266.007.24-.024.935-.052 1.551-.157 3.432-.502 10.942 1.517 18.241-2.648-.431-4.865-1.315-6.83-2.706-5.696-4.032-4.613-11.854-2.025-16.121z" fill="#F9B233" data-color="2"/>
        <path d="M81.947 118.365c5.224-4.858 11.002-12.207 16.896-23.367.474-.897 1.01-1.91 1.202-2.192 1.142-1.424 2.964-2.19 4.936-2.07 4.254.261 5.834 5.098 5.895 9.536.107 7.908-4.76 19.489-15.919 20.477-4.23.375-8.509-.407-13.01-2.384z" opacity=".05"/>
        <path d="M145.127 74.578c.839-.164 1.785-.348 2.076-.374h.002c1.466 0 2.86.747 3.782 2.044 1.993 2.802-.337 6.304-3.183 8.648-5.168 4.254-15.386 7.208-21.924.447-2.398-2.48-4.114-5.564-5.203-9.369 6.06.797 14.009.641 24.45-1.396z" opacity=".05"/>
        <path d="M51.69 50.368c.402-.662 2.265-3.52 4.47-3.52.386 0 .782.087 1.182.289.953.479 1.588 1.314 1.738 2.266.007.24-.024.935-.052 1.551-.157 3.432-.502 10.942 1.517 18.241-2.648-.431-4.865-1.315-6.83-2.706-5.696-4.032-4.613-11.854-2.025-16.121z" opacity=".05"/>
        <path d="M154.12 102.209a8.755 8.755 0 0 0-8.881-.725 8.722 8.722 0 0 0-3.277 2.768 8.588 8.588 0 0 0-1.491 6.473 8.603 8.603 0 0 0 3.532 5.618c.397.349 1.108 2.701-.143 5.613-1.104 2.57-4.28 6.627-13.158 4.93a8.7 8.7 0 0 0-6.535 1.336 8.617 8.617 0 0 0-3.672 5.546 8.58 8.58 0 0 0 1.343 6.505 8.663 8.663 0 0 0 5.571 3.654c2.606.499 5.058.73 7.361.73 13.337-.001 21.624-7.738 25.121-15.877 4.293-9.991 1.866-21.166-5.771-26.571z" fill="#000010" data-color="1"/>
        <path d="M155.868 127.067c-3.429 7.985-12.484 15.485-27.633 12.583a4.315 4.315 0 0 1-2.775-1.82 4.274 4.274 0 0 1-.669-3.24 4.294 4.294 0 0 1 1.829-2.762 4.32 4.32 0 0 1 3.254-.665c3.209.613 13.979 1.885 18.008-7.495 1.833-4.266 1.248-9.038-1.332-10.865a4.287 4.287 0 0 1-1.765-2.802 4.278 4.278 0 0 1 .742-3.224 4.272 4.272 0 0 1 1.629-1.378 4.369 4.369 0 0 1 4.426.36c5.974 4.226 7.775 13.187 4.286 21.308z" fill="#E94E1B" data-color="3"/>
        <path d="M114.694 148.861c-.817-.18-3.327-1.021-4.105-2.472-.622-1.168-.321-3.417.828-6.171a8.312 8.312 0 0 0 .004-6.428 8.355 8.355 0 0 0-4.563-4.548c-4.299-1.775-9.243.259-11.029 4.537-3.266 7.829-3.279 14.79-.037 20.688 4.799 8.728 14.695 10.707 15.808 10.904.488.086.975.128 1.456.128 3.96-.001 7.516-2.831 8.278-6.847a8.243 8.243 0 0 0-.16-3.777 8.409 8.409 0 0 0-6.48-6.014z" fill="#000010" data-color="1"/>
        <path d="M117.035 157.846c-.419 2.204-2.474 3.623-4.668 3.237-.902-.16-8.915-1.759-12.735-8.706-2.574-4.682-2.494-10.378.238-16.928a4.072 4.072 0 0 1 5.31-2.185 4.02 4.02 0 0 1 2.196 2.188 3.994 3.994 0 0 1-.002 3.095c-1.723 4.133-1.942 7.458-.649 9.885 1.929 3.604 6.859 4.647 7.079 4.692a4.134 4.134 0 0 1 3.154 2.915v.001c.165.592.191 1.2.077 1.806z" fill="#E94E1B" data-color="3"/>
        <path d="M58.352 138.936c-4.744 1.088-7.716 5.815-6.624 10.539a8.717 8.717 0 0 0 4.108 5.59 8.8 8.8 0 0 0 6.442 1.01c.409-.083 4.075-.68 6.305 3.368a8.764 8.764 0 0 0 5.269 4.217 8.802 8.802 0 0 0 6.718-.73 8.74 8.74 0 0 0 4.235-5.243 8.692 8.692 0 0 0-.732-6.687c-6.938-12.612-19.853-13.404-25.721-12.064z" fill="#000010" data-color="1"/>
        <path d="M80.605 156.465a4.407 4.407 0 0 1-2.137 2.646 4.446 4.446 0 0 1-3.388.368 4.416 4.416 0 0 1-2.658-2.128c-2.496-4.527-6.547-5.704-9.331-5.704-.672 0-1.271.069-1.756.175a4.436 4.436 0 0 1-3.268-.505 4.397 4.397 0 0 1-2.074-2.82c-.551-2.383.948-4.769 3.341-5.317 4.75-1.086 15.222-.413 20.902 9.911a4.385 4.385 0 0 1 .369 3.374z" fill="#E94E1B" data-color="3"/>
    </g>
</svg>
