<svg xmlns="http://www.w3.org/2000/svg" width="190" height="175" fill="none" viewBox="0 0 190 175">
  <g clip-path="url(#clip0_123_96)">
    <path fill="#F2F2F2" d="M18.271 147.422l-1.673-6.06a90.82 90.82 0 00-9.092-2.996l-.211 2.817-.857-3.103C2.607 137.074 0 136.631 0 136.631s3.52 12.296 10.906 21.696l8.605 1.388-6.685.885a33.299 33.299 0 002.99 2.91c10.742 9.157 22.708 13.358 26.725 9.384 4.018-3.975-1.434-14.62-12.177-23.776-3.33-2.839-7.514-5.117-11.702-6.911l-.39 5.215z"/>
    <path fill="#F2F2F2" d="M34.185 140.839l1.98-5.982a80.366 80.366 0 00-6.097-6.88l-1.767 2.311 1.014-3.063c-2.715-2.679-4.697-4.295-4.697-4.295s-3.907 12.197-2.876 23.749l6.585 5.273-6.222-2.416c.218 1.32.526 2.626.922 3.911 4.042 12.938 11.92 22.214 17.596 20.719 5.677-1.495 7.002-13.196 2.96-26.135-1.254-4.011-3.553-7.947-6.128-11.469l-3.27 4.277z"/>
    <path fill="#E6E6E6" d="M132.581 41.458h-1.044v-26.26c0-1.995-.428-3.972-1.26-5.816a15.182 15.182 0 00-3.587-4.93 16.724 16.724 0 00-5.37-3.295A17.836 17.836 0 00114.986 0H54.402c-4.39 0-8.6 1.601-11.703 4.452-3.104 2.85-4.848 6.716-4.848 10.747V159.26c0 1.996.428 3.972 1.26 5.816a15.18 15.18 0 003.588 4.931 16.73 16.73 0 005.37 3.295 17.832 17.832 0 006.333 1.157h60.584c4.39 0 8.6-1.602 11.703-4.452 3.104-2.85 4.848-6.716 4.848-10.747V60.15h1.044V41.457z"/>
    <path fill="#fff" d="M115.654 3.953h-7.907c.363.818.502 1.707.404 2.587a5.122 5.122 0 01-.968 2.457 5.728 5.728 0 01-2.113 1.751 6.292 6.292 0 01-2.761.634H67.601a6.292 6.292 0 01-2.761-.634 5.729 5.729 0 01-2.112-1.751 5.122 5.122 0 01-.968-2.458c-.098-.88.04-1.768.404-2.586h-7.386c-3.278 0-6.422 1.195-8.74 3.324-2.318 2.129-3.62 5.016-3.62 8.026v143.852c0 3.01 1.302 5.897 3.62 8.026 2.318 2.128 5.462 3.324 8.74 3.324h60.876c3.278 0 6.422-1.196 8.74-3.324 2.318-2.129 3.62-5.016 3.62-8.026V15.303c0-3.01-1.302-5.898-3.62-8.026-2.318-2.129-5.462-3.324-8.74-3.324z"/>
    <path fill="#000" d="M77.459 61.256c0-1.005.288-1.993.835-2.864a6.004 6.004 0 012.285-2.096 6.67 6.67 0 00-3.12-.768 6.67 6.67 0 00-3.118.767 6.009 6.009 0 00-2.283 2.097 5.372 5.372 0 00-.836 2.864c0 1.005.289 1.993.836 2.864a6.009 6.009 0 002.283 2.096 6.67 6.67 0 003.119.767c1.095 0 2.17-.265 3.119-.768a6.003 6.003 0 01-2.284-2.095 5.368 5.368 0 01-.836-2.864z"/>
    <path fill="#000" d="M85.3 61.256a5.37 5.37 0 01.835-2.864 6.005 6.005 0 012.284-2.096 6.67 6.67 0 00-3.118-.768 6.67 6.67 0 00-3.12.767 6.009 6.009 0 00-2.282 2.097 5.372 5.372 0 00-.836 2.864c0 1.005.288 1.993.836 2.864a6.009 6.009 0 002.283 2.096 6.67 6.67 0 003.118.767c1.095 0 2.171-.265 3.12-.768a6.003 6.003 0 01-2.285-2.095 5.368 5.368 0 01-.836-2.864z"/>
    <path fill="#FE9124" d="M92.962 66.983c3.444 0 6.237-2.564 6.237-5.727 0-3.163-2.793-5.727-6.237-5.727-3.445 0-6.237 2.564-6.237 5.727 0 3.163 2.792 5.727 6.237 5.727z"/>
    <path fill="#000" d="M103.385 79.145h-36.35c-.346 0-.677-.127-.922-.352a1.153 1.153 0 01-.383-.847v-33.38c0-.318.138-.623.383-.847.245-.225.576-.351.922-.352h36.35c.346 0 .678.127.923.352.244.224.382.529.382.847v33.38c0 .318-.138.622-.382.847a1.37 1.37 0 01-.923.352zm-36.35-35.298a.82.82 0 00-.553.21.691.691 0 00-.23.51v33.38c0 .19.083.373.23.507a.82.82 0 00.553.211h36.35a.822.822 0 00.554-.21.69.69 0 00.229-.509v-33.38a.69.69 0 00-.229-.508.821.821 0 00-.554-.211h-36.35zM111.501 104.732H55.752v.479h55.749v-.479z"/>
    <path fill="#FE9124" d="M57.513 101.738c.972 0 1.76-.724 1.76-1.616 0-.893-.788-1.617-1.76-1.617-.973 0-1.761.724-1.761 1.617 0 .892.788 1.616 1.76 1.616z"/>
    <path fill="#000" d="M111.501 120.899H55.752v.479h55.749v-.479z"/>
    <path fill="#FE9124" d="M57.513 117.905c.972 0 1.76-.724 1.76-1.616 0-.893-.788-1.617-1.76-1.617-.973 0-1.761.724-1.761 1.617 0 .892.788 1.616 1.76 1.616zM110.481 139.309H92.863a1.21 1.21 0 01-.811-.309 1.015 1.015 0 01-.337-.745v-5.671c0-.279.121-.547.337-.745a1.2 1.2 0 01.81-.309h17.619c.305 0 .596.111.812.309.215.198.336.466.336.745v5.671c0 .279-.121.547-.336.745a1.211 1.211 0 01-.812.309zM63.256 101.738c.972 0 1.76-.724 1.76-1.616 0-.893-.788-1.617-1.76-1.617-.973 0-1.761.724-1.761 1.617 0 .892.788 1.616 1.76 1.616zM68.999 101.738c.972 0 1.76-.724 1.76-1.616 0-.893-.788-1.617-1.76-1.617-.973 0-1.761.724-1.761 1.617 0 .892.788 1.616 1.76 1.616zM63.256 117.905c.972 0 1.76-.724 1.76-1.616 0-.893-.788-1.617-1.76-1.617-.973 0-1.761.724-1.761 1.617 0 .892.788 1.616 1.76 1.616zM68.999 117.905c.972 0 1.76-.724 1.76-1.616 0-.893-.788-1.617-1.76-1.617-.973 0-1.761.724-1.761 1.617 0 .892.788 1.616 1.76 1.616z"/>
    <path fill="#3F3D56" d="M189.29 175H6.142c-.392 0-.71-.128-.71-.285 0-.158.318-.286.71-.286H189.29c.392 0 .71.128.71.286 0 .157-.318.285-.71.285z"/>
    <path fill="#FE9004" d="M144.041 114.655c.125.052.245.114.36.184l11.441-4.484.408-2.768 4.572-.026-.27 6.348-15.101 3.667a2.39 2.39 0 01-.114.283c-.219.428-.57.787-1.01 1.032a2.777 2.777 0 01-1.462.346 2.765 2.765 0 01-1.427-.455 2.436 2.436 0 01-.913-1.106 2.211 2.211 0 01-.093-1.384c.118-.46.381-.877.757-1.2a2.703 2.703 0 011.354-.615 2.825 2.825 0 011.498.178zM162.484 172.176h-3.127l-1.488-11.077h4.616l-.001 11.077z"/>
    <path fill="#2F2E41" d="M157.123 171.355h6.031v3.488h-9.828c0-.925.4-1.812 1.112-2.466a3.975 3.975 0 012.685-1.022z"/>
    <path fill="#FE9004" d="M174.647 171.364l-3.112.282-2.664-10.89 4.594-.415 1.182 11.023z"/>
    <path fill="#2F2E41" d="M169.224 171.03l6.002-.542.372 3.47-9.781.885a3.225 3.225 0 01.145-1.354 3.41 3.41 0 01.699-1.2 3.745 3.745 0 011.145-.864c.44-.215.922-.35 1.418-.395z"/>
    <path fill="#FE9004" d="M163.355 95.838c3.46 0 6.265-2.575 6.265-5.753 0-3.177-2.805-5.753-6.265-5.753-3.46 0-6.265 2.576-6.265 5.753 0 3.178 2.805 5.753 6.265 5.753z"/>
    <path fill="#2F2E41" d="M158.658 169.936a1.203 1.203 0 01-.735-.244 1.037 1.037 0 01-.391-.622c-1.619-8.252-6.91-35.232-7.036-35.979a.312.312 0 01-.004-.052v-2.012c0-.073.024-.145.071-.204l.699-.899a.371.371 0 01.127-.105.424.424 0 01.165-.042c3.985-.171 17.035-.674 17.666.049.633.727.409 2.93.358 3.364l.003.045 5.863 34.433a.992.992 0 01-.205.78 1.171 1.171 0 01-.743.423l-3.662.554a1.232 1.232 0 01-.787-.143 1.077 1.077 0 01-.495-.581c-1.132-3.324-4.93-14.504-6.247-18.83a.114.114 0 00-.053-.067.132.132 0 00-.087-.018.132.132 0 00-.079.039.117.117 0 00-.031.078c.066 4.124.225 14.646.28 18.28l.006.391c.002.265-.104.521-.297.718a1.19 1.19 0 01-.747.345l-3.532.295a1.275 1.275 0 01-.107.004z"/>
    <path fill="#FE9124" d="M159.379 98.1c-1.094.597-1.748 1.694-2.123 2.81a24.676 24.676 0 00-1.246 6.362l-.397 6.466-4.912 17.139c4.257 3.308 6.713 2.556 12.443-.149 5.731-2.706 6.386.902 6.386.902l1.146-14.584 1.637-15.936a7.377 7.377 0 00-1.24-1.095 13.2 13.2 0 00-5.149-2.197 13.764 13.764 0 00-5.677.09l-.868.192z"/>
    <path fill="#FE9004" d="M157.783 118.116c.132.046.26.101.383.165l11.313-5.2.188-2.817 4.666-.295.25 6.421-15.118 4.591a2.42 2.42 0 01-.807 1.262 2.787 2.787 0 01-1.446.617 2.885 2.885 0 01-1.571-.247 2.59 2.59 0 01-1.14-1.023 2.289 2.289 0 01-.304-1.437c.059-.496.282-.964.639-1.341a2.72 2.72 0 011.355-.77 2.902 2.902 0 011.592.074z"/>
    <path fill="#FE9124" d="M172.231 101.183c2.783.902 3.274 10.675 3.274 10.675-3.275-1.654-7.204 1.053-7.204 1.053s-.819-2.556-1.801-5.864a5.29 5.29 0 01-.103-2.861 5.594 5.594 0 011.413-2.552s1.638-1.354 4.421-.451z"/>
    <path fill="#2F2E41" d="M168.973 91.606c-.781-.573-1.846.47-1.846.47l-.625-5.162s-3.903.43-6.401-.143c-2.497-.573-2.888 2.079-2.888 2.079a16.883 16.883 0 01-.078-3.226c.156-1.29 2.186-2.58 5.777-3.44 3.59-.861 5.464 2.867 5.464 2.867 2.498 1.146 1.377 7.129.597 6.555z"/>
  </g>
  <defs>
    <clipPath id="clip0_123_96">
      <path fill="#fff" d="M0 0h190v175H0z"/>
    </clipPath>
  </defs>
</svg>
