<svg data-bbox="42.5 32.5 115 135" viewBox="0 0 200 200" height="200" width="200" xmlns="http://www.w3.org/2000/svg" data-type="color">
    <g>
        <path fill="#B9EAD9" d="M155.706 89.166c0 31.296-25.342 56.666-56.603 56.666-31.261 0-56.603-25.37-56.603-56.666C42.5 57.87 67.842 32.5 99.103 32.5c31.261 0 56.603 25.37 56.603 56.666z" data-color="1"/>
        <path d="M85.958 132.875L77.54 68.02a3.235 3.235 0 0 0 1.678-2.828 3.246 3.246 0 0 0-3.245-3.248 3.246 3.246 0 0 0-3.245 3.248c0 1.46.969 2.681 2.294 3.09l10.936 64.593z" fill="#FCCA6B" data-color="2"/>
        <path d="M149.516 72.39l-5.085 4.349 1.695-5.994a30.33 30.33 0 0 0-9.16-2.212 30.29 30.29 0 0 0-3.903-.054l.08 13.741-2.579-13.516a30.398 30.398 0 0 0-15.526 6.807l19.492 23.373 22.97-19.956a30.37 30.37 0 0 0-7.984-6.538z" fill="#FCCA6B" data-color="2"/>
        <path d="M61.506 96.379v35.986c0 15.766 12.885 28.666 28.634 28.666h15.223c15.749 0 28.634-12.9 28.634-28.666V96.379H61.506z" fill="#F39464" data-color="3"/>
        <path d="M105.364 167.5H90.141c-16.837 0-30.535-13.713-30.535-30.568V88.008a1.9 1.9 0 0 1 1.9-1.902h72.491a1.9 1.9 0 0 1 1.9 1.902v48.924c.001 16.855-13.696 30.568-30.533 30.568zM63.407 89.91v47.021c0 14.758 11.993 26.763 26.734 26.763h15.223c14.741 0 26.733-12.006 26.733-26.763V89.91h-68.69z" fill="#000010" data-color="4"/>
        <path d="M126.198 131.122l-10.929-10.942a5.703 5.703 0 0 0-8.062 0l-10.929 10.942c-1.073 1.074-1.664 2.507-1.664 4.035s.591 2.961 1.664 4.036l10.929 10.942a5.677 5.677 0 0 0 4.031 1.669c1.459 0 2.92-.557 4.032-1.669l10.929-10.942a5.718 5.718 0 0 0-.001-8.071zm-1.612 6.458l-10.929 10.942a3.423 3.423 0 0 1-4.838 0l-10.93-10.942a3.404 3.404 0 0 1-.996-2.422c0-.918.354-1.778.996-2.421l10.929-10.942c.667-.667 1.543-1.001 2.419-1.001s1.752.334 2.419 1.001l10.929 10.942a3.432 3.432 0 0 1 .001 4.843z" fill="#FFFFFF" data-color="5"/>
        <path d="M97.181 108.899a5.667 5.667 0 0 0-1.183-4.203 5.654 5.654 0 0 0-3.8-2.143l-15.347-1.84a5.66 5.66 0 0 0-4.198 1.184 5.672 5.672 0 0 0-2.141 3.803l-1.838 15.364a5.713 5.713 0 0 0 4.983 6.346l15.347 1.84a5.66 5.66 0 0 0 4.198-1.184 5.674 5.674 0 0 0 2.141-3.804l1.838-15.363zm-2.264-.272l-1.838 15.363a3.403 3.403 0 0 1-1.286 2.282 3.41 3.41 0 0 1-2.518.712l-15.347-1.84a3.428 3.428 0 0 1-2.99-3.807l1.838-15.364a3.4 3.4 0 0 1 1.286-2.281 3.393 3.393 0 0 1 2.518-.711l15.347 1.84a3.402 3.402 0 0 1 2.278 1.287c.567.721.82 1.616.712 2.519z" fill="#FFFFFF" data-color="5"/>
    </g>
</svg>
