<svg xmlns="http://www.w3.org/2000/svg" width="250" height="200" fill="none" viewBox="0 0 250 200">
  <path fill="#FE9124" fill-rule="evenodd" d="M143.364 200c29.819 0 55.988-22.182 41.292-52.31-14.696-30.128 39.909-29.155 55.95-49.977 19.562-25.394 13.896-133.188-111.683-67.472-20.116 10.527-71.78-10.83-88.917-.233-20.171 12.474-48.552 38.015-20.171 64.18 13.98 12.887-36.141 46.338-14.19 76.301 21.42 29.237 36.435 1.366 69.046 7.329C107.302 183.782 121.217 200 143.364 200z" clip-rule="evenodd"/>
  <path fill="#fff" d="M108.753 147.586s6.866-3.23 9.429-5.477c2.563-2.247 5.75-7.83 5.75-7.83s35.005 25.281 57.829 21.674c5.259-.831 15.506-4.326 16.159-10.485 1.785-16.818-22.903-21.116-17.51-29.644 3.291-5.206 13.517 2.542 13.517 2.542l42.414 20.862s-14.653 36.119-50.212 37.567c-43.741 1.78-77.376-29.209-77.376-29.209z"/>
  <path fill="#fff" fill-rule="evenodd" d="M75.126 6.135c-.398-.156-2.536-2.774-5.25-3.25-1.234-.217-.114 1.353-1.472 1.368-4.042.042-10.612-.718-11.829 0-.904.531 1.088 2.388 0 2.473-10.26.804-25.913 11.049-29.31 16.02-1.08 1.58 7.661-1.103 6.268-.32-1.563.877-3.297 6.624-4.333 11.062-.718 3.057-1.17 6.99-1.329 11.27-.133 3.694-.08 4.305.452 6.325.611 2.259 1.09 2.923 1.913 2.605.293-.107.426-.506.426-1.25 0-.584.319-2.339.717-3.907l.691-2.817.293 1.17c.372 1.355 2.551 5.554 4.518 8.61.106.163.563-.043.974-1.038.375-.907.223-2.355.86-3.907 1.451-3.535 4.3-8.131 7.6-11.81C51.19 33.3 52.809 27.007 57.38 21.955 65.91 12.529 76.616 6.72 75.126 6.135z" clip-rule="evenodd"/>
  <path fill="#E7EAEE" fill-rule="evenodd" d="M33.655 23.708c-1.369 1.1-3.4 10.026-3.435 10.175-.717 3.056-1.41 13.67-.702 15.68.707 2.01 2.687-5.235 2.687-5.235s2.992 7.771 5.637 9.902c.113.09-3.143-9.614-4.187-15.28-1.379-7.479.778-15.868 0-15.242z" clip-rule="evenodd"/>
  <path fill="#fff" fill-rule="evenodd" d="M84.657 180.019c2.552-.559 6.857-2.502 8.505-3.167 1.648-.665 6.671-7.757 8.478-15.757 1.303-5.9 1.967-14.299 1.223-15.707-.11-.2-.512-4.019.558-2.772 2.379 2.772 5.203 7.123 14.113-.675 2.427-2.123 5.643-4.864 4.796-7.288-2.369-6.78-12.641-20.432-14.207-21.466-1.873-1.237-11.336-.186-25.42-4.343-15.97-4.714-22.621-18.595-28.871-16.788-5.055 1.461-17.165 10.441-20.205 16.128-14.348 26.848 3.04 45.661 7 51.065l3.844 1.66.133 3.429.186 2.152c.346 4.12.479 4.492 2.34 5.874 4.65 3.535 13.82 6.831 22.112 8 3.854.532 12.226.346 15.415-.345z" clip-rule="evenodd"/>
  <path fill="#E7EAEE" fill-rule="evenodd" d="M45.983 163.083l.187 2.152c.345 4.12.478 4.492 2.338 5.874 2.744 2.085 7.06 4.088 11.841 5.619 3.324 1.064 6.872 1.902 10.272 2.381 3.854.532 12.226.346 15.415-.345 1.577-.342-11.39-10.529-19.03-7.655-5.866 2.208-19.693-14.631-14.071-19.03 6.306-4.935-5.25-24.399-5.622-28.625-.372-4.225-1.838-5.235-1.88-5.087-.043.148-.043.654.072 1.872.496 5.251.478 42.844.478 42.844z" clip-rule="evenodd"/>
  <path fill="#FFB61D" fill-rule="evenodd" d="M44.599 122.248a1.029 1.029 0 011.207.813c2.006 10.306 10.49 17.283 25.663 20.931 15.262 3.67 25.658 3.472 31.135-.445.463-.331.118 2.501-.221 2.718-3.572 2.291-15.719 5.709-30.214 2.62-18.534-3.951-27.236-19.535-28.384-25.43a1.029 1.029 0 01.814-1.207zM36.87 103.655c.494-.283 18.902 20.815 44.164 25.59 25.262 4.775 31.379 1.738 32.362-4.775a1.03 1.03 0 112.036.307c-1.246 8.255-12.936 10.219-34.744 6.497-21.535-3.674-36.299-12.405-44.2-26.215a1.029 1.029 0 01.382-1.404z" clip-rule="evenodd"/>
  <path fill="#00160A" fill-rule="evenodd" d="M142.9 102.485c-.691-.24-1.435-.771-1.913-1.382l-.798-.984 2.818-2.79c4.332-4.253 7.654-8.612 10.524-13.794.957-1.728 3.376-7.495 3.376-8.053 0-.187.292-.93.638-1.701.531-1.117.93-1.542 2.073-2.18 1.355-.797 2.897-1.063 3.561-.611 1.276.85 1.276 3.535 0 8.16-1.408 5.076-3.296 8.717-7.202 13.953-.612.797-1.755 2.365-2.579 3.455-2.205 2.923-3.641 4.332-5.581 5.422-1.913 1.063-3.03 1.196-4.917.505zm19.083-2.392l1.914.85c.397.183 4.774 2.286 10.032 4.813 8.477 4.073 19.244 9.247 19.31 9.247.106 0 .605-1.153.717-2.499.266-2.897 1.25-6.83 2.392-9.568.532-1.222.957-2.75.957-2.883 0-.06-.432-.235-1.139-.52-.842-.34-2.074-.837-3.432-1.487-6.698-3.216-19.801-9.78-21.422-10.764-1.595-.93-1.914-1.01-1.914-.399 0 .798-1.621 4.492-2.87 6.485a87.748 87.748 0 01-2.897 4.36l-1.648 2.365zm30.804 10.126c.762.441-.558 1.089-.877 1.196-1.878.159-4.089-.194-5.9-1.249-.948-.672-8.405-4.815-13.352-7.564-2.262-1.256-3.999-2.221-4.349-2.43-1.117-.664-2.18-1.382-2.366-1.594-.558-.718-.026-1.037 1.542-.904.943.08 23.656 11.591 25.302 12.545zM84.747 179.8c2.051-.449 5.234-1.792 7.26-2.647.496-.209.922-.389 1.246-.52 1.648-.664 6.67-7.757 8.478-15.757 1.302-5.9 1.967-14.299 1.223-15.707-.449-.816 2.217 1.921 4.202 3.959.602.618 1.141 1.171 1.512 1.542 11.588 11.508 28.837 20.758 46.751 25.09 8.93 2.179 15.282 2.95 23.813 2.95 14.326 0 25.621-2.817 35.88-9.01.483-.291.935-.559 1.367-.814l.012-.008h.001c3.576-2.117 5.706-3.379 11.537-9.942 6.541-7.362 12.359-24.452 14.299-30.352.851-2.658 2.924-13.229 2.924-15.867 0-3.123-1.09-4.598-2.578-6.113-2.631-2.578-6.193-3.508-9.143-2.392l-1.382.532-.425-1.409c-.612-2.126-1.887-3.827-3.854-5.103-2.924-1.94-3.349-2.073-5.98-2.073-2.047 0-2.605.106-3.907.718l-1.515.69-.319-.956c-.611-1.967-2.662-4.709-4.252-5.502-1.411-.703-3.853-.768-5.555-.452-3.721.691-6.379 2.419-7.469 4.838-.319.744-.717 1.328-.877 1.328-.133 0-5.368-1.462-11.614-4.226l-2.973-1.318c-11.216-4.972-13.647-6.05-13.426-7.399.186-1.143.133-1.78-.186-2.764-.558-1.648-1.196-2.1-3.003-2.1-1.435 0-1.435 0-1.276-.717.851-4.067.824-6.406-.08-7.894-.611-.983-1.329-1.382-2.976-1.621-.957-.133-1.409-.053-2.472.531-.718.372-1.329.638-1.382.585-.053-.053.133-1.515.425-3.243 2.18-12.783.496-23.798-5.059-35.492l-.182-.39-.002-.002-.001-.004c-1.689-3.625-8.479-18.204-27.899-25.56-.879-.333-1.71-.654-2.51-.964-6.615-2.56-11.012-4.263-21.622-4.245-11.893.02-15.92 1.701-23.76 5.29-1.09.504-2.047.796-2.127.69-.08-.133-.585-.452-1.09-.717-.505-.266-1.595-.93-2.392-1.462-2.285-1.542-3.694-2.18-4.412-2.02-.824.212-.824.903 0 1.222.346.133.744.585.904 1.037.345.957.744 1.063.983.266.107-.293.266-.505.346-.452l.286.135c.388.182 1.114.521 1.893.901a78.38 78.38 0 002.605 1.223c.585.213.398.372-2.126 1.86-9.86 5.795-17.887 14.804-22.379 25.063-.691 1.542-1.302 2.499-1.94 3.03-1.621 1.356-4.81 5.21-5.555 6.725-.399.824-1.25 2.1-1.914 2.843-.637.745-1.328 1.701-1.568 2.1-.212.425-.425.718-.505.664-.053-.08.027-1.382.213-2.897.399-3.534.399-4.465.08-4.544-.479-.133-1.17 1.727-1.462 4.04-.213 1.408-.266 3.534-.133 5.714l.16 3.455-1.888-3.057c-.65-1.023-1.29-2.047-1.743-2.773a138.61 138.61 0 00-.595-.947c-.692-1.01-1.09-2.525-.798-3.03.16-.293.133-.426-.133-.426-.558 0-1.647 1.781-2.365 3.828-.346.956-.691 1.754-.797 1.754-.4 0-.213-9.515.212-12.572.877-6.033 3.19-13.475 4.226-13.475.213 0 .399-.106.399-.265 0-.479-.691-.293-1.25.319-1.249 1.355-2.896 5.528-3.933 9.966-.717 3.057-1.17 6.99-1.329 11.27-.133 3.694-.08 4.305.452 6.325.611 2.259 1.09 2.923 1.914 2.605.292-.107.425-.506.425-1.25 0-.584.319-2.339.718-3.907l.69-2.817.293 1.17c.372 1.355 2.551 5.554 4.518 8.61 1.355 2.074 1.382 2.207 1.834 5.45.24 1.833.983 6.294 2.71 13.155 1.527 6.063 10.108 12.077 12.251 13.579.282.198.453.317.48.348.267.293.639.452.851.372.24-.08.372.027.372.32 0 .265.186.61.399.77.266.186.452.904.505 2.153.133 2.498 1.993 7.282 3.428 8.85.93 1.01 2.87 1.435 5.024 1.063 1.408-.212 1.807-.372 1.674-.691-.08-.212.425.053 1.116.585 8.08 6.166 16.266 9.86 25.462 11.455 3.562.611 9.462.957 12.678.718 2.844-.186 2.844-.186 2.711.372-.186.744.053 1.196 3.96 7.814 3.109 5.236 3.375 5.581 6.83 9.116 7.336 7.575 15.336 13.448 24.399 17.993 8.531 4.253 22.152 7.787 34.604 8.904 12.452 1.116 21.395-10.312 21.369-13.236-.053-4.013-.611-6.645-1.967-9.196-1.329-2.472-2.206-3.322-6.193-5.98-4.438-2.95-7.176-5.369-8.983-7.947-1.143-1.621-1.568-3.455-1.568-4.438 0-.638.824-2.073 2.047-2.366 1.116-.292 1.328-.266 2.578.346.744.345 2.684 1.249 4.279 2.02 1.621.744 3.189 1.488 3.508 1.647.94.262 1.338 2.102 1.553 3.1.048.223.087.403.121.515.372 1.382 2.133 3.167 3.269 3.774 1.995 1.067 6.911 1.21 8.267-.252.345-.372 1.491-.83 1.727-.691.236.138 1.089 1.289 1.089 2.219.027 1.595.851 3.056 2.605 4.518 3.322 2.764 5.9 3.429 8.505 2.206 1.355-.638 2.466-.887 2.466-.887s1.108 1.414 1.175 1.897c.522 3.776 6.113 5.359 7.601 5.519.341.034 1.005-.112 1.679-.26h.001c.901-.198 1.821-.401 2.015-.183.379.429-6.352 11.562-7.283 12.97-8.85 13.289-26.073 21.422-47.149 22.273-13.687.558-30.511-3.269-45.103-10.233-9.328-4.491-17.594-9.993-26.445-17.701a419.732 419.732 0 00-3.96-3.375c-.638-.505-2.152-2.233-3.322-3.827-1.967-2.658-3.083-3.615-3.083-2.711 0 .398 1.276 2.844 2.738 5.262.584.957.956 1.621.823 1.515-.132-.106-.558 1.807-.956 4.253-1.303 7.84-3.455 15.574-5.635 20.385-1.196 2.605-3.49 4.55-4.18 5.081-2.552 1.94-6.371 2.813-11.66 3.344-6.698.665-16.558-.824-24.08-3.641-1.993-.744-7.123-2.897-7.468-3.136-.021-.021-.139-.786-.303-1.853l-.149-.965c-.957-6.564-2.286-31.84-2.286-43.534 0-4.837-.053-5.9-.372-5.9-.664 0-.93.637-1.222 2.923-.665 5.209-.532 32.399.186 38.113l.16 1.302-.905-.505c-1.382-.797-6.644-6.139-8.478-8.611-1.552-2.113-2.475-4.82-3.166-6.844-.16-.471-.308-.905-.449-1.286-3.853-10.685-2.498-22.674 2.818-33.465 4.518-9.195 10.073-14.298 18.206-16.77 1.328-.399 2.498-.824 2.63-.93.506-.479-2.737-.24-4.517.319-5.794 1.78-11.854 6.644-15.974 12.863-5.794 8.718-8.398 21.582-6.565 32.558.426 2.605 2.153 8.239 2.632 8.638.042.042.26.501.591 1.195.914 1.917 2.685 5.631 3.954 7.31 1.541 2.1 6.192 6.671 8.132 8.08l1.223.877.186 2.152c.346 4.12.478 4.492 2.339 5.874 4.651 3.535 13.82 6.831 22.113 8 3.853.532 12.225.346 15.415-.345zm89.834-24.957c-15.442-1.356-34.099-8.718-47.601-20.093-5.688-4.811-13.076-14.166-16-19.349-.611-1.063-1.063-1.568-1.594-1.701-.559-.159-.08-.319 2.206-.691 9.647-1.648 19.029-5.661 26.604-11.375l1.116-.824.319.771c.718 1.727 3.482 3.482 5.528 3.482.824 0 3.588-1.25 5.263-2.392l1.143-.771.93.93c.85.85 1.01.904 2.605.904 1.833 0 4.039-.824 5.262-1.994l.664-.611 1.887 1.249c1.01.718 3.828 2.286 6.246 3.535a172.843 172.843 0 0111.083 6.246l.585.372-.558.744c-.585.797-1.674 2.312-1.674 4.625 0 2.604 2.708 7.284 7.893 10.498 4.073 2.525 11.083 7.491 10.817 14.751-.032.876-1.01 3.056-2.312 5.023-.85 1.249-3.216 3.109-5.369 4.199-3.667 1.834-10.126 2.897-15.043 2.472zM32.868 35.535c.717.16 1.196.398 1.09.505-.346.345-2.18.186-2.605-.24-.665-.637-.505-1.09.425-1.275.478-.08 1.196-.479 1.595-.877.398-.399.744-.585.744-.452 0 .345-1.329 1.568-1.993 1.834-.426.186-.293.266.744.505zm10.578.425c.77-.425.611-.718-.292-.585-.904.133-.957.027-.373-.877.24-.345.373-.85.32-1.116-.08-.346-.267-.186-.692.664-.319.612-.77 1.117-.983 1.117-.665 0-.718.531-.08.77.824.346 1.462.346 2.1.027zM34.25 21.449c-.638.106-2.631.903-4.386 1.78-1.78.85-3.295 1.569-3.402 1.542-2.71-.293 1.064-4.81 7.92-9.435 6.566-4.439 11.004-6.778 15.123-7.974 2.579-.744 5.476-.85 6.3-.239.451.346.292.372-1.675.399-4.252 0-9.17 2.18-17.17 7.521-4.145 2.765-8.956 6.725-8.956 7.363 0 .132.77-.133 1.728-.559 2.046-.93 4.146-1.408 5.076-1.196.983.266.77.612-.558.798zm10.285 2.285c2.499-.505 2.605-.531 2.605-.797 0-.133-.957-.266-2.153-.319l-2.153-.08 1.994-2.259c1.09-1.249 2.365-2.498 2.817-2.79.983-.638 1.037-1.09.24-1.356l-.612-.186.664-.24c.373-.132 1.064-.185 1.542-.106.718.107.877.054.797-.319-.08-.372-.372-.451-1.674-.425-3.8.053-5.422 1.063-2.445 1.542.824.133 1.515.345 1.515.478 0 .107-.133.213-.293.213-.505 0-4.784 4.332-5.315 5.395-.824 1.568-.372 1.807 2.471 1.25zm17.542-10.312c-.77.053-.957.186-.904.558l.008.054c.03.197.047.31.003.344-.06.046-.23-.05-.632-.279l-.07-.04c-.505-.265-.558-.398-.266-.61.187-.16.691-.4 1.09-.479l.744-.186-.558-.585c-.292-.345-.452-.664-.372-.77.213-.213 2.817.08 3.19.372.159.133.398.106.558-.053.372-.372.877-.08.877.505 0 .319-.08.345-.32.106-.212-.213-.398-.213-.637-.027-.213.186-.372.186-.505-.026-.08-.133-.585-.266-1.116-.266-.49 0-.723 0-.77.093-.042.084.064.243.265.545.424.662.398.664-.576.743h-.01zm-4.04-7.07c0-.345-.319-.956-.718-1.355l-.744-.744 3.987.16c2.206.105 4.704.345 5.581.584.877.212 1.887.372 2.26.372.558 0 .451-.106-.585-.664-1.808-.93-4.12-1.383-8.558-1.701-5.316-.373-8 .132-7.495 1.461.08.266.505.399 1.142.399 1.303 0 3.43.77 4.147 1.488.77.771.983.771.983 0zm-12.97 70.379c2.153 2.764 4.997 5.9 6.326 6.963.797.638 1.488 1.17 1.541 1.17.027 0-.558-1.223-1.302-2.712-3.003-5.98-4.758-11.933-5.582-18.79-.186-1.515-.478-2.79-.797-3.322-.638-1.063-.638-2.446.027-3.748.345-.69.531-1.568.531-2.525v-1.462l-1.276 1.33c-1.249 1.302-2.445 1.833-2.445 1.036 0-.585 1.967-3.402 3.004-4.28.823-.69.93-.93 1.196-3.002.186-1.25.61-3.456.956-4.917.372-1.462.585-2.711.532-2.764-.186-.186-6.432 6.987-7.282 9.275-.187.503-.691 1.382-1.09 1.914l-.691.887s.215 1.242.452 2.804c.24 1.577.352 2.662.452 3.628.134 1.292.246 2.372.61 4.136.426 2.18.851 4.066.958 4.2.08.159.425 1.381.77 2.737.745 3.003 1.994 5.98 3.11 7.442zm107.853 25.142l-.558-.558s9.264-11.77 10.923-16.106c1.267-3.31 2.013-4.248 3.019-4.248.562 0 1.021.128 1.234.447.372.558.731 1.25.252 3.615-.797 3.827-2.02 6.352-5.687 11.8-.851 1.25-1.941 2.632-2.419 3.11-1.116 1.037-3.628 2.1-5.089 2.339-.931.133-1.197.08-1.675-.399z" clip-rule="evenodd"/>
  <path fill="#fff" d="M226.514 127.873c3.307-9.009 2.806-10.928 2.233-11.116 0 0-1.263.718-1.821 2.232-1.036 2.844-4.584 10.286-5.913 11.615-1.568 1.568-1.568 1.568-3.163 1.568-1.595 0-6.194-2.401-6.82-4.769-1.002-3.787 3.312-16.945 3.418-17.689l-.718-.505c-.478.452-6.701 19.322-14.883 14.405-.937-.563-2.924-3.216-3.083-4.625-.886-4.093 3.178-18.405 3.869-21.345.618-2.63 3.838-5.073 7.798-5.073 6.087 0 5.269 5.32 7.996 7.195 1.208.831 3.193-.675 3.805-.79 3.429-.638 4.742.105 7.256 2.1 1.94 1.54 3.376 4.587 4.956 5.661.877.597 1.809-.219 2.114-.372 1.25-.628 3.933-.159 4.677.372 1.091.476 3.765 3.046 4.187 4.54 1.914 6.775-4.13 21.793-6.412 24.61-3.777 4.663-12.802.995-9.496-8.014z"/>
  <path fill="#fff" fill-rule="evenodd" d="M73.718 103.188c7.282 4.598 14.791 7.601 23.35 8.425 6.75.638 15.852-.239 22.391-2.366 5.501-1.78 12.943-6.713 17.913-10.886 9.648-8.08 15.734-20.7 18.392-34.096.372-1.887.94-6.63.913-11.334 0-5.475-2.41-20.437-9.71-29.064-15.058-17.793-39.81-25.808-60.612-18.96-7.504 2.47-15.493 6.947-21.526 12.794-7.602 7.415-13.21 17.515-15.442 27.827-2.34 10.897.703 23.92 5.992 34.604 4.226 8.505 11.19 18.51 18.339 23.056zm70.963-32.118c-4.997 15.016-18.02 26.232-34.392 29.634-2.498.505-4.226.691-7.734.744-2.472.08-4.944.053-5.449 0-11.455-1.382-20.172-5.608-28.199-13.634-3.508-3.535-4.996-5.449-7.176-9.223-3.428-5.98-5.262-12.093-5.82-19.455-1.914-25.223 16.132-46.246 41.541-48.425 9.967-.85 21.023 2.206 29.422 8.16 3.109 2.205 8.744 7.787 10.498 10.391.718 1.037 7.681 11.216 8.904 17.063 1.568 7.602.956 17.117-1.595 24.745z" clip-rule="evenodd"/>
  <path fill="#E7EAEE" fill-rule="evenodd" d="M156.687 52.93c0 17.84-8.439 37.343-19.329 45.672-5.196 3.974-11.986 8.786-17.899 10.645-8.666 2.725-22.392 2.366-22.392 2.366s14.003-1.872 19.193-3.961c14.88-5.988 23.003-15.18 28.019-24.001 9.901-17.41 12.408-31.154 12.408-30.72z" clip-rule="evenodd"/>
  <path fill="#fff" fill-rule="evenodd" d="M97.372 98.259c-7.096-.904-14.14-3.429-19.827-7.176-3.375-2.206-8.478-7.389-10.95-11.083-3.535-5.316-5.874-11.004-7.016-17.117-.824-4.438-.798-11.269.026-15.229.85-4.04 1.94-7.123 3.88-11.03 2.26-4.518 4.652-7.84 8.24-11.428 6.113-6.113 13.209-9.993 21.66-11.854 2.738-.584 12.652-1.063 12.997-.611.08.133.612.478 1.17.77.558.32 2.046 1.436 3.269 2.526 1.834 1.594 2.658 2.604 4.252 5.103 1.09 1.7 1.967 3.242 1.967 3.375 0 .292.85.824 1.329.824.664 0 1.116-1.993 1.249-5.502.08-1.94.239-3.535.346-3.535.372 0 4.465 2.26 6.378 3.535 3.748 2.499 7.495 6.007 10.259 9.675 1.249 1.648 1.436 2.073 1.436 3.083 0 .93.265 1.648 1.089 3.083 2.073 3.614 3.695 8.16 4.678 13.182.638 3.376.638 9.754-.027 13.29-1.807 9.727-7.176 19.401-14.166 25.54-5.927 5.183-12.225 8.373-19.667 9.94-2.552.559-10.206.931-12.572.639zM78.37 80.079c.24-.265.399-.664.319-.85-.024-.056-.357-.213-.844-.442-1.135-.533-3.11-1.461-3.965-2.429-3.402-3.88-4.651-6.777-5.422-12.757-.744-5.82-.119-9.755 1.223-16.08.654-3.085 2.393-5.633 3.476-7.218.736-1.078 1.167-1.711.748-1.765-1.036-.16-1.196-.08-2.286.957-2.338 2.232-3.402 4.013-4.518 7.442-1.727 5.368-2.061 19.877 1.357 26.418 3.418 6.54 9.3 7.415 9.912 6.724zm37.794-22.325c-.451 4.129-2.366 10.1-4.598 12.704-1.037 1.223-4.841 3.323-8.053 2.897-3.102-.41-5.528-1.86-7.602-4.97-1.78-2.684-2.7-5.943-3.322-10.046-1.073-7.087 3.615-15.336 5.635-17.382 2.046-2.1 3.508-2.844 5.369-2.87 1.807 0 2.976.398 4.81 1.7 3.349 2.34 8.638 9.944 7.761 17.967zm-35.827-21.98c.531-.611.611-.904.452-2.047-.107-1.063-.32-1.488-.877-1.94-.984-.797-2.206-.797-3.11.053-.638.612-.718.824-.638 2.286.08 1.568.133 1.675 1.01 2.153 1.17.638 2.312.452 3.163-.505zM96.92 19.375c-4.785 3.429-6.858 4.838-9.01 6.166-1.701 1.064-2.233 1.09-2.233.133 0-.505.372-1.063 1.329-1.94l1.329-1.222-2.578-.346c-2.897-.372-5.715-1.17-6.326-1.78-1.01-1.037-.133-1.276 2.738-.745 1.275.213 3.747.479 5.501.532l3.19.133 2.312-1.675c5.076-3.668 10.339-5.74 12.864-5.103 1.568.372 1.382.798-.399 1.01-2.046.24-3.296.93-8.718 4.837z" clip-rule="evenodd"/>
  <path fill="#fff" d="M103.751 69.714c0-.133.159-.266.372-.266s.478.133.558.266c.08.16-.08.266-.372.266-.319 0-.558-.106-.558-.266zM105.346 69.475c0-.293.664-.558 1.408-.558.585.026.585.026.08.398-.585.452-1.488.532-1.488.16zM101.226 68.784c-.08-.213-.186-.585-.266-.797-.079-.266.054-.4.399-.4.292 0 .532.16.532.373s.079.558.159.797c.106.293.027.426-.266.426-.239 0-.505-.187-.558-.4zM102.635 68.12c-.133-.798.159-1.064 1.116-1.064.292 0 .532.266.638.718.213.77-.133 1.143-1.063 1.143-.425 0-.611-.186-.691-.798zM99.924 68.252c-.505-.398-.505-.398.053-.398.345 0 .585.159.585.398 0 .479 0 .479-.638 0zM105.266 68.226c-.345-.346-.186-1.382.239-1.542.771-.292 1.117-.16 1.276.532.106.398.159.744.106.77-.212.24-1.461.4-1.621.24zM107.631 67.668c-.079-.08-.159-.426-.159-.745 0-.451.212-.638.85-.77.558-.107.904-.053 1.063.16.266.424.266.956.027 1.089-.478.266-1.595.425-1.781.266zM98.701 66.844c0-.32.24-.585.585-.665.691-.186.665-.213.797.478.054.4-.079.559-.638.612-.584.08-.744-.027-.744-.425zM100.721 66.87c-.372-.399-.133-1.143.372-1.143.346 0 .532.186.532.505 0 .505-.611.93-.904.638zM102.316 66.073c-.213-.505.239-.877 1.116-.877.399 0 .585.16.585.505 0 .292-.239.558-.585.664-.877.213-.93.213-1.116-.292zM109.997 65.993c.08-.133.212-.266.292-.266.08 0 .053.133-.026.266-.08.16-.213.266-.293.266-.079 0-.053-.107.027-.266zM104.708 65.541c-.213-.531.053-.797.903-.93.479-.053.691.053.745.425.186.877-1.329 1.356-1.648.505zM98.33 65.09c-.24-.878-.187-.957.504-.957.372 0 .665.106.665.239s.08.425.159.638c.08.265-.08.425-.532.505-.505.106-.69 0-.797-.426zM107.206 64.797c0-.478.186-.691.691-.824.744-.186 1.17.186 1.17 1.037 0 .345-.213.451-.931.451-.824 0-.93-.08-.93-.664zM97.532 64.797c-.08-.212-.027-.399.106-.399.16 0 .266.187.266.4 0 .212-.053.398-.106.398s-.16-.186-.266-.399zM100.216 65.01c-.372-.346-.159-1.09.319-1.223.292-.08.585-.053.664.027.319.292.133 1.063-.265 1.222-.505.186-.505.186-.718-.026zM109.704 64.824c-.292-.771.027-1.356.771-1.435.558-.08.718.026.718.451 0 .877-.293 1.356-.824 1.356-.292 0-.585-.16-.665-.372zM102.077 64.478c-.319-.292-.213-.824.239-.983.505-.186 1.568.345 1.275.638-.372.319-1.328.558-1.514.345zM104.389 63.813c-.239-.372.611-1.01 1.302-1.01.319 0 .452.16.399.452-.106.532-1.462.957-1.701.558zM97.107 63.628c0-.133-.08-.425-.16-.665-.08-.239-.053-.425.106-.425.346 0 .612 1.01.293 1.223-.133.08-.24.026-.24-.133zM97.824 63.016c-.16-.584.16-1.01.77-1.01.346 0 .692 1.037.48 1.382-.293.452-1.117.186-1.25-.372zM99.685 63.15c-.399-.4-.16-1.356.372-1.49.398-.105.611.028.824.506.159.345.239.69.186.744-.266.24-1.223.425-1.382.24zM106.861 63.15c-.346-.346-.186-.559.611-.851.664-.213.85-.186.983.133.24.637-1.089 1.249-1.594.717zM109.199 62.538c-.265-.425.107-.797.798-.797.824 0 1.063.69.319.903-.798.213-.93.186-1.117-.106zM111.459 61.9c0-.398.478-.824.691-.611.186.186-.186.983-.452.983-.133 0-.239-.16-.239-.372zM96.761 61.555c-.106-.08-.186-.426-.16-.718 0-.505.027-.505.266.08.266.638.213.957-.106.638zM97.266 61.156c-.24-.93-.213-1.01.478-1.01.771 0 1.25.983.665 1.355-.611.373-.957.266-1.143-.345zM106.409 61.687c0-.08.133-.505.292-.983.372-1.063 1.196-1.116 1.382-.08.08.399.107.744.08.771-.133.16-1.754.399-1.754.292zM99.153 61.023c-.106-.08-.186-.399-.186-.69 0-.426.08-.453.399-.187.212.186.398.505.398.691 0 .399-.319.505-.61.186zM108.721 60.492c-.159-.824.186-1.197 1.01-1.09.399.053.531.292.531.877 0 .664-.106.824-.691.877-.584.08-.717-.053-.85-.664zM111.326 60.598c-.346-1.063-.24-1.382.478-1.462.638-.08.718 0 .718.691 0 .585-.16.824-.558.93-.293.08-.585 0-.638-.16zM96.362 59.083c0-.505.053-.718.133-.452.053.24.053.664 0 .93-.08.24-.133.027-.133-.478zM97.027 59.428c-.346-.319-.186-1.355.239-1.515.611-.239.904.054.904.93 0 .559-.133.771-.479.771-.266 0-.585-.08-.664-.186zM98.622 58.71c-.107-.398-.16-.823-.054-.903.266-.266.426.16.346.93l-.08.744-.212-.77zM107.206 58.525c0-.293.133-.452.266-.372.159.08.266.345.266.558 0 .212-.107.372-.266.372-.133 0-.266-.24-.266-.558zM108.402 58.87c-.372-.398-.08-1.116.532-1.276.77-.186.797-.186 1.036.585.16.479.053.585-.638.691-.425.08-.85.053-.93 0zM110.847 58.365c-.292-.266-.212-1.143.08-1.143.16 0 .266-.106.266-.265 0-.133-.16-.266-.372-.266-.452 0-.824-1.303-.452-1.675.478-.478 1.01.027 1.329 1.33.186.69.372 1.488.452 1.754.106.345 0 .451-.505.451-.346 0-.718-.08-.798-.186zM112.283 56.957c-.186-.798-.665-2.392-1.01-3.562-.532-1.7-.585-2.126-.293-2.312.186-.133.425-.24.505-.24.293 0 1.356 5.45 1.249 6.512l-.079 1.064-.372-1.462zM96.097 56.824c0-.426.053-.585.133-.32.053.24.053.612 0 .798-.08.16-.133-.026-.133-.478zM96.628 56.77c.106-.93.877-1.142 1.09-.292.186.691.24.611-.558.877-.558.16-.612.107-.532-.584zM107.844 56.531c-.213-.77.239-1.222 1.09-1.116.637.08.877 1.223.345 1.568-.664.425-1.276.24-1.435-.452zM98.17 56.319c0-.452.133-.691.425-.691.266 0 .372.186.319.584-.133.85-.744.93-.744.107zM95.804 55.202c0-.292.08-.372.16-.16.08.187.053.426-.027.506-.08.106-.16-.053-.133-.346zM96.31 55.123c0-.399.159-.558.557-.558.372 0 .505.133.452.451-.133.691-1.01.771-1.01.107zM97.771 54.883c-.186-.478-.186-.478.611-.69.479-.16.585-.08.585.318 0 .638-.957.957-1.196.372zM107.392 54.511c-.186-.664.16-1.01 1.09-1.01.452 0 .585.16.585.665 0 .399-.16.665-.372.665-.213 0-.559.08-.771.159-.239.08-.426-.08-.532-.479zM109.705 53.9c-.213-.532.106-.93.717-.93.372 0 .505.186.505.664 0 .479-.133.665-.531.665-.293 0-.612-.186-.691-.399zM96.043 53.528c0-.558.612-1.196.877-.904.107.08.187.452.187.798 0 .425-.16.611-.532.611-.346 0-.532-.186-.532-.505zM97.505 53.21c-.212-.665.027-.958.93-1.09.824-.107 1.09.77.373 1.302-.692.505-1.117.425-1.303-.213zM107.126 53.05c-.186-.16-.265-1.143-.106-1.143.027 0 .425-.107.904-.24.797-.239.85-.212.824.505-.027.532-.186.798-.585.904-.718.186-.824.186-1.037-.026zM106.143 52.438c0-.186.08-.265.186-.186.08.107.08.266 0 .372-.106.08-.186 0-.186-.186zM109.12 52.013c.08-.452.903-1.116 1.089-.904.08.08.213.4.293.745.186.531.106.584-.638.584-.638 0-.824-.106-.744-.425zM96.31 51.986c0-.132.132-.398.265-.61.213-.32.266-.293.266.212 0 .319-.106.585-.266.585-.133 0-.266-.08-.266-.187zM97.107 51.402c0-.744.558-.983.983-.425.266.398.266.531 0 .717-.558.346-.983.24-.983-.292zM105.186 51.056c-.478-.531-.478-.558-.026-.398.265.106.611.186.744.186s.239.186.239.398c0 .558-.372.505-.957-.186zM99.472 51.03c-1.143-.877-1.302-2.844-.24-2.844.718 0 1.383 1.116 1.276 2.153-.079.956-.398 1.17-1.036.69zM106.754 51.19a.32.32 0 01.373 0c.079.105 0 .185-.187.185-.186 0-.265-.08-.186-.186zM110.768 50.153c.079-.24.159-.479.159-.532 0-.053.133-.106.266-.106.159 0 .266.239.266.531 0 .32-.186.532-.426.532-.292 0-.372-.133-.265-.425zM96.84 50.073c0-.611.559-1.621.878-1.621.558 0 .16 1.7-.425 1.807-.24.053-.452-.027-.452-.186zM102.821 49.78l-.798-.186.718-.186c.744-.212 1.276-.053 1.276.4 0 .265-.027.265-1.196-.027zM101.891 48.505c0-1.09.611-1.25 1.169-.293.372.638.399.771.053.771-.213 0-.558.08-.797.16-.319.133-.425-.027-.425-.638zM106.515 48.877c-1.196-.532-1.967-1.94-1.967-3.615 0-1.196.107-1.488.824-2.153.452-.425.904-.77 1.037-.77.585 0 2.737 2.046 3.455 3.322l.824 1.462-.877.93c-1.01 1.063-2.126 1.355-3.296.824zM100.96 48.186c-.079-.133-.026-.266.107-.266.159 0 .292.133.292.266 0 .16-.053.266-.106.266-.08 0-.213-.107-.293-.266zM97.479 47.76c.08-.238.16-.478.16-.53 0-.054.238-.107.53-.107.665 0 .692.425.027.797-.717.372-.903.346-.717-.16zM99.578 47.442c-.611-.08-.797-.426-.398-.665.106-.08.584-.212 1.063-.319.717-.16.85-.106.85.346 0 .558-.558.797-1.515.638zM101.625 46.538c0-.319.026-.505.079-.452.027.053.24.32.426.585.319.372.292.452-.08.452-.266 0-.425-.213-.425-.585zM97.904 46.352c0-.16.133-.345.266-.425.16-.08.265.026.265.24 0 .238-.106.424-.265.424-.133 0-.266-.106-.266-.239zM98.887 45.953c-.213-.531 1.675-1.116 1.993-.611.24.425 0 .611-1.01.824-.61.133-.877.08-.983-.213zM101.386 45.103c0-.293.079-.372.159-.16.08.186.053.426-.027.505-.079.107-.159-.053-.132-.345zM99.126 44.678c.32-.585 1.25-1.542 1.489-1.542.266 0 .292 1.25.026 1.409-.133.053-.558.186-.957.292-.584.133-.717.106-.558-.16zM101.253 44.066c-.293-.797-.16-1.143.478-1.249.665-.133.665-.133.239.691-.531 1.063-.505 1.063-.717.558zM101.093 42.472c0-.053.532-.425 1.196-.798.797-.478 1.356-.638 1.754-.531.479.16.346.266-.824.824-1.302.584-2.126.797-2.126.505zM115.844 18.924c-.718-1.037-2.233-2.711-3.322-3.721-1.09-1.01-1.808-1.834-1.595-1.834.585 0 5.05 1.222 6.166 1.7.93.4.957.453.718 1.277-.133.478-.24 1.674-.24 2.657 0 1.01-.079 1.808-.186 1.808-.132 0-.797-.85-1.541-1.887zM61.758 99.428c-1.09-.558-1.329-.877-2.711-3.615-1.993-3.88-2.046-4.784-.16-2.578.745.877 2.472 2.685 3.828 4.014 2.312 2.232 2.418 2.392 1.647 2.285-.558-.08-.77-.026-.637.186.319.479-.691.346-1.967-.292z"/>
  <path fill="#00160A" fill-rule="evenodd" d="M106.299 147.851a1.03 1.03 0 01.55-1.348l.572-.243c5.568-2.382 8.763-3.813 10.934-6.085 2.172-2.273 2.432-5.61 2.839-7.641.112-.557 1.374.422 1.932.534.557.112.918.654.806 1.211-.49 2.442-1.811 4.77-3.937 6.979-2.12 2.203-6.223 4.563-12.348 7.142a1.03 1.03 0 01-1.348-.549zM131.476 41.805c.488-.291 1.12-.13 1.41.358a31.755 31.755 0 014.471 16.298c0 17.622-14.285 31.907-31.907 31.907-4.683 0-9.224-1.01-13.383-2.934-.516-.239-2.465-2.14-.502-1.366 1.963.773 9.557 2.508 13.94 2.508 16.485 0 28.147-13.63 28.147-30.115 0-5.444-2.176-10.275-2.534-15.245-.042-.576-.131-1.12.358-1.411zM29.539 119.705c.363-.437 1.012-1.319 1.45-.956 1.791 1.493 3.703 3.222 5.749 3.556 2.128.347 4.653.347 7.571-.006a1.03 1.03 0 01.248 2.044c-3.1.375-5.815.375-8.15-.006-2.42-.395-4.67-1.461-6.736-3.182a1.03 1.03 0 01-.132-1.45z" clip-rule="evenodd"/>
  <path fill="#fff" d="M51.393 83.694c-1.33-1.063-4.173-4.2-6.326-6.963-1.116-1.462-2.365-4.439-3.11-7.442-.345-1.356-.69-2.578-.77-2.738-.107-.133-.532-2.02-.957-4.2-.638-3.082-.503-4.075-1.063-7.763-.237-1.562-.452-2.804-.452-2.804l.691-.887c.399-.532.903-1.411 1.09-1.914.85-2.288 7.096-9.461 7.282-9.275.053.053-.16 1.302-.532 2.764a72.071 72.071 0 00-.956 4.916c-.266 2.074-.372 2.313-1.196 3.004-1.037.877-3.004 3.694-3.004 4.279 0 .797 1.196.266 2.445-1.037l1.276-1.328v1.461c0 .957-.186 1.834-.531 2.525-.665 1.302-.665 2.684-.027 3.748.32.531.611 1.807.797 3.322.824 6.857 2.579 12.81 5.582 18.79.744 1.489 1.329 2.711 1.302 2.711-.053 0-.744-.531-1.541-1.169z"/>
  <path fill="#fff" fill-rule="evenodd" d="M161.983 100.093l1.914.85c.397.183 4.774 2.286 10.032 4.813 8.477 4.073 19.244 9.247 19.31 9.247.106 0 .605-1.153.717-2.499.266-2.897 1.25-6.83 2.392-9.568.532-1.222.957-2.75.957-2.883 0-.06-.432-.235-1.139-.52-.842-.34-2.074-.837-3.432-1.487-6.698-3.216-19.801-9.78-21.422-10.764-1.595-.93-1.914-1.01-1.914-.399 0 .798-1.621 4.492-2.87 6.485a87.748 87.748 0 01-2.897 4.36l-1.648 2.365zm30.804 10.126c.762.441-.558 1.089-.877 1.196-1.878.159-4.089-.194-5.9-1.249-.948-.672-8.405-4.815-13.352-7.564-2.262-1.256-3.999-2.221-4.349-2.43-1.117-.664-2.18-1.382-2.366-1.594-.558-.718-.026-1.037 1.542-.904.943.08 23.656 11.591 25.302 12.545z" clip-rule="evenodd"/>
  <path fill="#fff" d="M142.9 102.485c-.691-.24-1.435-.771-1.913-1.382l-.798-.984 2.817-2.79c4.333-4.253 7.522-8.9 10.392-14.083.957-1.728 3.801-8.695 4.147-9.465.531-1.117.93-1.542 2.073-2.18 1.355-.797 2.897-1.063 3.561-.611 1.276.85 1.276 3.535 0 8.16-1.409 5.076-3.296 8.717-7.203 13.953-.611.797-1.754 2.365-2.578 3.455-2.206 2.923-3.641 4.332-5.581 5.422-1.914 1.063-3.03 1.196-4.917.505zM152.92 101.873l-.558-.558s9.264-11.77 10.923-16.106c1.267-3.31 2.013-4.248 3.019-4.248.562 0 1.021.128 1.234.447.372.558.731 1.25.252 3.615-.797 3.827-2.02 6.352-5.688 11.8-.85 1.25-1.94 2.632-2.418 3.11-1.116 1.037-3.628 2.1-5.09 2.339-.93.133-1.196.08-1.674-.399z"/>
  <path fill="#E7EAEE" fill-rule="evenodd" d="M168.481 89.566c.536-1.226.918-2.296.918-2.683 0-.611.318-.531 1.913.399 1.621.983 14.724 7.548 21.422 10.764 2.498 1.196 4.571 1.874 4.571 2.007s-29.393-9.187-28.824-10.487zM77.545 91.083C74.17 88.877 69.067 83.694 66.595 80c-3.535-5.316-5.874-11.004-7.016-17.117-.824-4.438-.798-11.269.026-15.229.85-4.04 1.94-7.123 3.88-11.03 2.26-4.518 4.652-7.84 8.24-11.428 3.518-3.519-12.12 11.032-8.24 37.066 3.11 21.817 16.474 30.411 14.06 28.82z" clip-rule="evenodd"/>
</svg>
