<svg data-bbox="28.398 34.801 143.202 130.401" viewBox="0 0 200 200" height="200" width="200" xmlns="http://www.w3.org/2000/svg" data-type="color">
    <g>
        <path d="M134.351 42.908l-3.997-5.915-7.55-.148-25.907 8.428-4.441-2.514-4.737.739-3.701 2.366-6.958 6.654s-5.33 1.627-5.33 2.07c0 .444-2.961 5.471-2.961 5.471l-2.665-.591-5.626-.296-6.07 8.724-4.145 7.541L45.97 81.5s-2.369 3.845-2.369 4.436-.592 2.957-.592 2.957L29.241 112.7l3.109 6.21 7.994 5.027 72.985 39.924 5.33-1.922 5.181-7.837 3.849-7.985 36.418.444 4.885-3.401 1.036-4.14-.444-90.051-2.517-3.549s-3.405-.887-3.849-1.035c-.444-.148-22.947-.887-22.947-.887l-5.92-.59z" fill="#FFFFFF" data-color="1"/>
        <path d="M162.204 42.209h-26.617c.122-.312.158-.661.044-1.003a9.302 9.302 0 0 0-4.721-5.41c-2.256-1.119-4.802-1.304-7.171-.506l-25.992 8.697c-1.638-1.729-3.831-2.779-6.241-2.92-2.531-.15-4.926.679-6.796 2.339l-8.958 7.94-2.022.677a9.33 9.33 0 0 0-5.417 4.719 9.535 9.535 0 0 0-.649 1.696c-4.343-1.882-9.505-.287-11.923 3.942l-6.433 12.048c-.082.153-.12.316-.144.479l-3.905 3.461a9.29 9.29 0 0 0-3.133 6.46 9.46 9.46 0 0 0 .06 1.617c-.034.045-.081.074-.11.124l-12.448 21.537a9.312 9.312 0 0 0-.889 7.12 9.323 9.323 0 0 0 4.401 5.68l75.589 43.069a9.31 9.31 0 0 0 4.621 1.227c.838 0 1.681-.112 2.507-.34a9.33 9.33 0 0 0 5.687-4.391l6.626-11.604a1.45 1.45 0 0 0 .153-.965h33.881c5.181 0 9.396-4.21 9.396-9.385V51.594c0-5.175-4.215-9.385-9.396-9.385zm-37.522-4.11c1.619-.548 3.361-.417 4.903.347a6.371 6.371 0 0 1 3.234 3.701c.008.023.026.039.035.062h-20.455l12.283-4.11zM86.681 45.62a6.295 6.295 0 0 1 4.652-1.598 6.39 6.39 0 0 1 3.134 1.062l-11.535 3.859 3.749-3.323zM70.968 58.061a6.396 6.396 0 0 1 3.705-3.23l27.634-9.246c-1.376 1.633-2.239 3.712-2.239 6.008v86.922c0 5.175 4.215 9.385 9.396 9.385h1.501l-4.565 1.528c-3.361 1.115-7.008-.691-8.136-4.048L70.62 62.962a6.398 6.398 0 0 1 .348-4.901zm-12.626 5.75c1.401-2.454 4.184-3.608 6.826-3.086l-9.828 8.71 3.002-5.624zM47.231 80.582L67.51 62.61c.08.434.155.868.297 1.294l26.685 79.562-47.806-53.82A6.387 6.387 0 0 1 45.087 85a6.375 6.375 0 0 1 2.144-4.418zm-12.622 37.744a6.38 6.38 0 0 1-3.01-3.882c-.452-1.663-.24-3.392.607-4.866l11.216-19.404a9.38 9.38 0 0 0 1.047 1.441l57.755 65.019c.187.211.41.376.613.568l-68.228-38.876zm67.92 34.187c.608.123 1.221.215 1.839.215.997 0 2.001-.162 2.975-.49l12.68-4.245c.061-.021.105-.065.161-.093h1.576l-8.243 7.305c-1.275 1.135-2.894 1.702-4.652 1.598a6.39 6.39 0 0 1-4.424-2.138l-1.912-2.152zm16.435 6.49a6.376 6.376 0 0 1-3.887 3.002 6.396 6.396 0 0 1-4.88-.61l-3.428-1.953a9.59 9.59 0 0 0 1.921.321c.193.012.382.015.576.015a9.319 9.319 0 0 0 6.22-2.358l8.868-7.858-5.39 9.441zm49.669-20.487c0 3.542-2.882 6.421-6.429 6.421h-52.74c-3.547 0-6.429-2.879-6.429-6.421V51.594c0-3.542 2.882-6.421 6.429-6.421h52.74c3.547 0 6.429 2.879 6.429 6.421v86.922z" fill="#1D1D1B" data-color="2"/>
        <path d="M141.817 83.132c-2.245 0-4.24.904-5.772 2.309.131-3.461 2.391-6.222 5.624-7.087v-1.158h-12.413v1.112c3.364.828 5.676 3.637 5.733 7.233-1.544-1.464-3.583-2.409-5.881-2.409-4.774 0-8.644 3.866-8.644 8.634s4.547 8.796 8.275 11.775c3.325 2.657 4.433 4.575 6.797 8.118 2.364-3.542 3.325-5.461 6.65-8.118 3.728-2.979 8.275-7.006 8.275-11.775.001-4.768-3.87-8.634-8.644-8.634z" fill="#1D1D1B" data-color="2"/>
        <path d="M84.343 74.435a.988.988 0 0 0 .939-1.3l-2.009-6.009a.973.973 0 0 0 .324-.412l.253-.673 5.713 6.099a.986.986 0 0 0 1.398.047.987.987 0 0 0 .046-1.397l-5.946-6.348c-.141-.15-.335-.194-.523-.236l2.185-5.823a.99.99 0 1 0-1.855-.694l-2.512 6.696-1.564-4.678a.992.992 0 0 0-1.252-.625.988.988 0 0 0-.626 1.25l4.489 13.429c.14.411.527.674.94.674z" fill="#1D1D1B" data-color="2"/>
        <path d="M52.307 113.93l-8.411-5.136c-.081-.05-.173-.017-.26-.042l.646-1.054a.986.986 0 0 0-.325-1.358.983.983 0 0 0-1.36.324l-2.731 4.457a.986.986 0 0 0 .843 1.505.981.981 0 0 0 .842-.471l1.157-1.888c.06.065.073.161.152.21l8.415 5.14c.456.278.78.722.908 1.25a2.017 2.017 0 0 1-.236 1.532 2.041 2.041 0 0 1-2.786.676.983.983 0 0 0-1.36.324.986.986 0 0 0 .325 1.358 4.008 4.008 0 0 0 5.505-1.323c.56-.911.726-1.987.475-3.029s-.891-1.923-1.799-2.475z" fill="#1D1D1B" data-color="2"/>
        <path d="M61.259 93.995a4.192 4.192 0 0 0 2.959 1.297h.093a4.2 4.2 0 0 0 2.921-1.169l.004-.004c.477-.458.785-1.012.998-1.595l.953.156a.992.992 0 0 0 1.135-.818.993.993 0 0 0-.819-1.135l-1.084-.178c-.11-.865-.415-1.713-1.064-2.389l-5.308-5.53a4.227 4.227 0 0 0-5.973-.123 4.217 4.217 0 0 0-.124 5.962l5.309 5.526zm-3.817-10.06a2.25 2.25 0 0 1 3.176.062l5.308 5.53c.195.203.331.44.434.685l-1.736-.284c-.549-.066-1.047.282-1.136.818a.993.993 0 0 0 .819 1.135l1.904.312c-.102.176-.196.357-.349.504l-.001-.002c-.433.417-1.101.644-1.599.621a2.215 2.215 0 0 1-1.572-.687l-5.308-5.526a2.232 2.232 0 0 1-.622-1.598c.01-.601.253-1.157.682-1.57z" fill="#1D1D1B" data-color="2"/>
        <path d="M115.502 49.568h-1.627a.992.992 0 0 0-.95.714l-4.143 14.368h2.059l1.056-3.66h5.251l.979 3.66h2.071l-3.736-14.341a.996.996 0 0 0-.96-.741zm-3.036 9.446l2.155-7.471 1.998 7.471h-4.153z" fill="#1D1D1B" data-color="2"/>
        <path d="M159.327 129.941h-5.251l-1.242-4.645h-2.064l3.993 15.327a.991.991 0 0 0 .958.741h1.627c.44 0 .827-.293.95-.714l4.428-15.354h-2.059l-1.34 4.645zm-2.725 9.447l-1.998-7.471h4.153l-2.155 7.471z" fill="#1D1D1B" data-color="2"/>
    </g>
</svg>
