<svg xmlns="http://www.w3.org/2000/svg" width="341" height="315" fill="none" viewBox="0 0 341 315">
  <path fill="#FE9124" fill-rule="evenodd" d="M199.948 300c78.424 0 89.542-34.89 101.433-41.301 11.891-6.411 4.498-19.278 12.297-28.982 12.457-15.501 20.007-7.513 24.13-27.622 4.123-20.11-3.372-25.799-3.372-43.753 0-35.971 17.231-52.999-4.774-71.82-22.005-18.82-58.752-16.599-95.096-16.599-67.458 0-107.87-92.474-197.843-64.73-31.006 9.56-27.579 22.59-20.766 68.634 2.959 19.996-19.38 45.417-15.504 68.14 7.079 41.499 25.774 35.87 61.047 63.889 5.917 4.701 14.548 4.652 21 9.473 10.815 8.083 11.51 20.651 31.73 29.128C146.834 258.126 144.068 300 199.948 300z" clip-rule="evenodd"/>
  <ellipse cx="192" cy="245.5" fill="#fff" rx="79" ry="69.5"/>
  <path fill="#000" fill-rule="evenodd" d="M121.885 278.629l.903.653c-2.037 1.828-5.102-.445-6.82-2.575-2.763-3.426-5.567-7.067-6.407-11.386-.479-2.458-.287-4.991-.094-7.488l.779-10.067c.346-4.461.692-8.93 1.464-13.338 2.09-11.928 7.351-23.285 15.098-32.592l.078-.094c1.368-1.643 2.862-3.437 2.835-5.567-.055-4.506 2.54-8.717 5.947-11.667 3.408-2.95 7.58-4.844 11.688-6.697 1.862-.839 4.292-1.591 5.734-.146 2.967 2.972 7.919 1.079 11.838-.431a44.115 44.115 0 0115.106-2.935l.454-.007c3.095-.044 6.579-.094 8.467-2.492 1.203-1.527 3.502-1.438 5.432-1.207l13.272 1.587c1.014.121 2.23.398 2.55 1.368.857 2.602 3.882 3.663 6.504 4.454 9.322 2.81 18.434 6.627 26.348 12.298 7.915 5.672 14.604 13.301 18.153 22.368-5.771-7.887-11.691-15.924-19.7-21.525-2.292-1.603-4.73-2.987-7.204-4.292-5.84-3.078-11.918-5.732-18.232-7.659-29.311-8.947-63.217-.649-85.084 20.822-3.171 3.113-6.143 6.542-7.942 10.606l2.376.737c-3.765 1.682-6.561 5.369-7.167 9.448a18.562 18.562 0 016.23-6.391c-.731 2.443-2.633 4.406-4.498 6.33-2.376 2.453-4.692 4.843-4.446 8.084 1.128-2.962 3.97-5.197 7.114-5.595-4.986 4.872-10.337 10.59-10.178 17.559a21.732 21.732 0 018.713-9.704l-5.479 7.364c-2.073 2.785-4.255 5.967-3.781 9.406a23.679 23.679 0 017.455-8.1 29.73 29.73 0 01-6.199 9.055 13.169 13.169 0 006.781-2.917c-.805 1.123-1.53 2.392-1.557 3.774-.027 1.382.868 2.865 2.236 3.064.414-.926 1.713-1.317 2.57-.774-2.596 2.526-2.623 7.207-.056 9.762.228-1.201 1.241-2.213 2.442-2.44-1.914 3.348-2.259 7.552-.914 11.167a9.193 9.193 0 013.158-5.268 32.64 32.64 0 01-5.967 13.448zm-1.134-1.548c1.621-.017 2.63-1.83 2.799-3.442.202-1.929-.277-3.857-.753-5.738l-2.82-11.153c-.53.168-.592.746-.656 1.35-.056.517-.113 1.053-.466 1.371-.714-.888-.795-2.232-.193-3.199.608-.976.21-2.343-.652-3.104-.862-.761-2.061-1.02-3.211-1.058-.621-.02-1.281.028-1.79.385-.508.358-.775 1.118-.414 1.624a15.933 15.933 0 012.377 4.984c.037.134.072.269.108.404.246.926.498 1.878 1.175 2.538.524.51.657 1.288.764 2.011l.861 5.861c.157 1.067.314 2.155.134 3.218-.179 1.063-.754 2.117-1.718 2.6l3.079 1.047c.447.152.905.306 1.376.301zm33.564-96.062c-.607.129-1.116-.404-1.55-.86l-.05-.052c-.445-.465-1.211-.871-1.68-.43a77.3 77.3 0 01-18.397 12.834c-1.218.609-1.381 2.25-1.382 3.612 0 .455.435 1.093.719.738 1.384-1.734 3.184-3.081 4.963-4.407 5.005-3.732 10.07-7.498 15.808-9.959.696-.298 1.512-.72 1.569-1.476zm54.929-5.782c-.31-.727-1.191-.989-1.967-1.135-2.115-.399-4.268-.579-6.419-.76-2.954-.248-5.904-.495-8.747-1.306-.911-.26-1.689.663-2.189 1.468a36.948 36.948 0 014.512-.193c2.621.048 5.228.375 7.829.701 1.322.165 2.653.333 3.921.743.147.048.296.099.445.15h.001c.865.298 1.76.605 2.614.332zm-27.98 11.171c.599.137 1.169.585 1.259 1.193.089.606-.325 1.197-.855 1.506-.529.309-1.155.395-1.763.476l-1.829.242c-.183.024-.372.05-.531.145-.46.272-.428 1.009-.052 1.389.376.38.952.474 1.487.473 2.488-.005 4.843-1.795 5.603-4.164.18-.563.276-1.188.052-1.735-.113-.278-.302-.518-.513-.732-.978-.991-2.436-1.428-3.826-1.33-1.39.098-2.712.69-3.843 1.503-.542.391-1.058.847-1.366 1.44-.308.592-.374 1.345-.029 1.917.131.218.334.411.585.452.252.041.542-.121.573-.374.087-.703.6-1.296 1.211-1.653.611-.358 1.316-.515 2.01-.653.602-.121 1.228-.231 1.827-.095zm-49.033 34.755c.683-4.044 3.95-7.331 7.757-8.855 2.099-.839 4.5-1.207 6.61-.398.521.199 1.025.475 1.4.887.353.388.574.877.742 1.373 1.072 3.18-.016 6.858-2.319 9.298-2.304 2.441-5.657 3.721-9.004 3.961-1.072.077-2.224.033-3.109-.576-.886-.609-1.326-1.963-.644-2.795.322.016.496.304.674.598.088.146.178.294.286.411.372.4.987.429 1.532.406 2.374-.1 4.783-.688 6.715-2.071 1.931-1.382 3.319-3.64 3.279-6.015-.013-.765-.18-1.548-.613-2.179-.712-1.035-2.058-1.503-3.311-1.42-1.254.083-2.429.639-3.497 1.301-1.404.872-2.702 1.968-3.583 3.367-.88 1.399-1.31 3.129-.938 4.739-.329.594-1.307.476-1.712-.07-.404-.545-.379-1.293-.265-1.962zm21.857 33.328c-1.737 1.118-3.176 2.866-3.444 4.914-.217 1.656.338 3.306.886 4.884.427 1.232.868 2.49 1.681 3.509 1.469 1.84 3.901 2.602 6.226 2.976.633.102 1.594-.184 1.368-.784a8.845 8.845 0 01-6.466-3.047 8.847 8.847 0 01-2.021-6.857c.07-.512.187-1.021.401-1.491.435-.95 1.246-1.68 2.124-2.247a10.305 10.305 0 016.429-1.599c2.16.186 4.318 1.133 5.637 2.854 1.319 1.722 1.633 4.261.47 6.091-.19.297-.328.823.019.885 1.874-1.009 2.913-3.235 2.808-5.36-.104-2.126-1.227-4.115-2.769-5.582-.853-.811-1.863-1.496-3.007-1.772-1.509-.363-3.087.012-4.588.407-1.997.525-4.018 1.102-5.754 2.219zm85.277 2.641a43.89 43.89 0 00-19.769-2.532c-2.796.287-5.6.858-8.113 2.116-4.743 2.373-8.133 7.259-8.697 12.532-.564 5.272 1.716 10.765 5.849 14.088 1.567 1.26 3.346 2.203 5.127 3.148 1.216.645 2.433 1.29 3.585 2.037.328.315-.412.629-.845.489-4.027-1.3-7.938-3.277-10.811-6.385-3.494-3.78-5.199-9.149-4.525-14.253.674-5.104 3.714-9.846 8.071-12.589 3.445-2.17 7.565-3.085 11.635-3.231 4.069-.147 8.127.434 12.151 1.058 2.513.389 5.46 1.136 6.342 3.522zm-66.068 7.867c-.285-.653-1.431-.824-1.641-.142-1.332 4.334-5.561 7.611-10.091 7.819-1.024.047-2.048-.048-3.069-.147-2.197-.212-4.463-.463-6.387-1.545-2.767-1.556-4.432-4.75-4.451-7.925-.02-3.174 1.486-6.259 3.772-8.461-.317-.888-1.68-.459-2.357.198-3.749 3.645-4.392 9.935-1.761 14.454 2.631 4.519 8.144 7.052 13.341 6.478 5.198-.575 9.89-4.055 12.306-8.692.329-.632.623-1.384.338-2.037zm-32.546 21.949a21.809 21.809 0 00-.233 9.973c.312 1.472.346 2.284.352 2.435a.548.548 0 01.001.027l.002-.027c.007-.152.044-.966.362-2.441.71-3.288.541-6.763-.484-9.967zm4.498 1.963c-1.203 2.521-1.054 5.641.384 8.036.323.538.568.976.749 1.298.243.434.37.661.414.646.048-.017-.003-.321-.11-.957-.043-.256-.095-.564-.153-.929l-1.284-8.094zm3.387 3.22c-.511 1.61-.135 3.471.959 4.757 1.118 1.313 1.483 1.733 1.143.043a12.388 12.388 0 00-2.102-4.8zm98.007-18.31c-1.536 6.165-6.441 10.836-11.198 15.049.218.468.92.3 1.37.047 4.818-2.712 8.716-7.131 10.495-12.365 1.778-5.234 1.336-11.248-1.471-16.01-.236-.4-.536-.825-.992-.915-.455-.089-.98.439-.712.818 2.698 3.822 3.638 8.836 2.508 13.376zm-69.263-55.664c-.011-.976.002-2.031.591-2.809.811-1.07 2.349-1.182 3.692-1.201.599-.008 1.206-.016 1.789.123 1.242.295 2.23 1.211 3.112 2.134.195.205.403.456.354.735-.06.345-.492.504-.836.433-.228-.046-.433-.16-.638-.274-.103-.057-.207-.115-.314-.164-1.234-.566-2.685.055-3.794.84-.175.123-.363.281-.367.495-.004.214.18.38.353.507a7.543 7.543 0 005.262 1.394c.441-.05.96-.212 1.074-.641.045-.168.027-.365.011-.556-.028-.319-.055-.619.213-.729.14-.058.298-.016.443.026.999.29 2.167.757 2.36 1.779.056.296.016.603-.078.889a2.462 2.462 0 01-1.91 1.626c-.386.061-.78.028-1.169-.005-1.016-.088-2.034-.175-3.041-.337a20.695 20.695 0 01-5.36-1.633c-.59-.272-1.204-.607-1.503-1.184-.228-.439-.238-.954-.244-1.448zm37.988-24.049c-.594-1.607-2.03-2.875-3.699-3.266-.516-.121-1.099-.15-1.536.149-.438.299-.588 1.028-.171 1.355.405.317.16 1.062-.334 1.203-.495.141-1.027-.194-1.273-.645-.247-.451-.274-.987-.277-1.501-.003-.686.059-1.451.566-1.914.193-.176.434-.289.672-.396.987-.442 2.079-.816 3.134-.579 1.006.226 1.807.969 2.508 1.724a25.154 25.154 0 011.629 1.941c.449.594.881 1.227 1.05 1.952.168.725.023 1.567-.538 2.057-.548.48-1.391.521-2.057.225-.588-.262-1.09-.839-1.047-1.481.044-.642.833-1.175 1.373-.824zm5.306 45.172c1.474-.042 2.848-1.177 3.166-2.618.194-.876-.045-1.917-.808-2.388-.558-.344-1.259-.319-1.913-.277-.905.058-1.845.137-2.632.589-.786.452-1.371 1.389-1.125 2.262.401 1.419 1.837 2.475 3.312 2.432zm.189-2.127c-.285.076-.691.003-.717-.291-.011-.122.055-.238.13-.335a1.617 1.617 0 011.849-.488c-.219.538-.7.963-1.262 1.114zm.762-21.818c-.241-.555.225-1.2.79-1.413.453-.17.944-.152 1.433-.135.121.005.242.009.362.011.604.007 1.272-.093 1.664-.553.138-.162.231-.401.126-.586-.11-.193-.37-.227-.592-.238-1.54-.08-3.357-.033-4.245 1.228-.19.271-.657.179-.836-.1-.178-.279-.137-.646-.035-.961.363-1.13 1.406-1.951 2.546-2.281 1.14-.329 2.364-.225 3.521.037.39.088.795.205 1.08.485.226.223.353.528.435.835.394 1.465-.188 3.143-1.404 4.05-1.217.907-2.992.985-4.283.189-.231-.142-.455-.32-.562-.568zm-5.277 25.892c.715.857 1.562 1.636 2.589 2.072 2.076.881 4.729.067 5.954-1.827.446-.69.645-1.742-.014-2.231-1.056 2.22-4.12 3.2-6.269 2.006a5.537 5.537 0 01-1.126-.847c-1.545-1.48-2.351-3.896-1.445-5.834.296-.632.75-1.177 1.246-1.667 1.083-1.069 2.631-1.944 4.076-1.468.06.019.12.041.18.063.202.075.406.15.618.137.276-.016.564-.263.493-.53a.608.608 0 00-.12-.211c-.894-1.138-2.646-1.489-3.909-.784-1.503.84-3.03 1.828-3.83 3.353-1.301 2.482-.238 5.617 1.557 7.768zm23.938-38.281c-.066.095-.05.227-.034.353.019.15.037.292-.086.352-.45.222-.989.199-1.468.052-1.309-.401-2.187-1.603-2.927-2.754-.433-.674-.864-1.389-.934-2.187-.07-.797.338-1.695 1.106-1.921.856-.251 1.696.386 2.363.979.752.67 1.521 1.36 1.986 2.253.466.893.57 2.047-.006 2.873zm-2.846-2.988c.184.179.285.42.387.662.099.237.199.475.378.654a.988.988 0 00.887.261 15.927 15.927 0 00-2.031-2.534c-.204.062-.221.363-.098.537.074.106.178.183.282.261.067.05.135.101.195.159zm-112.051 82.291c-.073 1.195.019 2.58.975 3.3.319-.178.298-.634.258-.997-.247-2.234.446-4.387 1.144-6.555.499-1.552 1.001-3.111 1.162-4.712.047-.464-.077-1.1-.544-1.118-.349-.013-.575.355-.716.675a27.562 27.562 0 00-2.279 9.407zm92.798-43.11c1.079.477 2.276.964 3.406.621.449-.136.849-.396 1.242-.652-.001.66-.569 1.215-1.202 1.403-.633.189-1.313.088-1.958-.052-.717-.155-1.593-.595-1.488-1.32zm-85.381 55.099c.275-.49.322-1.072.363-1.633l.326-4.469c.159-2.193.319-4.395.176-6.589-.018-.277-.046-.568-.207-.794-.162-.225-.503-.346-.724-.178-.163.123-.204.346-.232.548a59.303 59.303 0 00-.566 7.659c-.016 1.858.069 3.777.864 5.456zm-4.885-3.84c-.286.241-.763.029-.921-.311-.157-.34-.094-.737-.026-1.105a237.569 237.569 0 012.406-11.514.645.645 0 01.108-.271c.236-.292.713.002.881.337.411.824.214 1.806.008 2.703l-2.209 9.635c-.044.192-.096.398-.247.526zm7.651.171c-.123 1.447.094 2.898.31 4.334.077.511.445 1.19.907.958l.9-9.625c.037-.392.062-.826-.181-1.135-.243-.309-.858-.297-.935.089l-.664 3.3c-.138.689-.277 1.379-.337 2.079zm92.944-29.499c-2.563-1.319-5.682-1.839-8.344-.734-1.988.826-7.607 4.391-8.355 8.962-.5 3.059-.495 6.186.576 9.14l.172.463c.319.837 1.335 1.798 1.903 1.107-1.659-2.999-1.969-6.712-.83-9.944 1.139-3.232 3.707-5.931 6.879-7.228.667-.273 1.364-.488 2.082-.556 1.452-.137 2.901.333 4.199.998 2.794 1.432 6.256 3.813 7.586 6.657 1.282 2.741 2.227 6.011 1.066 8.807-1.16 2.796-8.783 4.818-8.783 4.818l.844 1.54s4.267-.842 6.873-2.74c10.94-7.969-3.417-20.028-5.868-21.29z" clip-rule="evenodd"/>
  <path fill="#fff" d="M137 126c9.667 4 30.8 11 38 7 9-5 16-10.5-6-13.5-9.6-3.2-16.333-7.667-18.5-9.5 5.167-3.333 16.1-10.6 18.5-13-26.5 6.5-56 9-41-39 14-17.5 25-12.5 33-13.5s-43-28-56.5 13.5c-22.4-4-31.333 12-33 20.5-11.333-4.667-34-12.6-34-7 0 7 9.5 18.5 25 25.5-4.8 8.8-3.667 16.667-2.5 19.5-2 4.167-6.6 11.9-9 9.5-3-3-1.5-8.5-7.5-16s-23.5 28.5-10 27c12.5 11.5 14 13 21.5 13s6 21 39.5 0c30-5.2 40.833-18.167 42.5-24z"/>
  <path fill="#000" fill-rule="evenodd" d="M58.81 118.341c-.146 2.926-2.403 6.095-5.313 5.749-1.313-1.519-2.34-3.404-3.356-5.267-1.95-3.577-3.856-7.073-7.654-7.737-3.73-.652-7.204 2.092-9.527 5.082a30.92 30.92 0 00-6.224 15.018c-.403 3.199.909 7.635 4.114 7.283 3.66-.402 6.264 2.477 8.912 5.406 2.45 2.711 4.94 5.464 8.34 5.696 4.05.276 7.357 2.702 10.704 5.158 2.236 1.64 4.49 3.293 6.996 4.328 4.713 1.947 10.147 1.57 14.958-.121 4.81-1.691 9.092-4.603 13.144-7.699l.213-.162c2.212-1.692 4.527-3.463 7.278-3.835 14.064-1.906 27.145-10.155 34.925-22.025 11.03 8.817 26.452 11.831 39.99 7.814 2.297-.681 4.609-1.595 6.312-3.28 1.704-1.685 2.669-4.301 1.832-6.546-.915-2.455-3.652-3.769-6.253-4.086-1.426-.173-2.863-.122-4.301-.07-1.185.042-2.371.084-3.552.001-7.151-.506-13.106-5.438-18.521-10.137 7.846-2.406 14.207-8.451 18.407-15.5 4.2-7.05 6.451-15.081 8.161-23.107.9-4.224 1.568-8.982-.845-12.563-1.08-1.603-2.663-2.775-4.241-3.943-1.777-1.315-3.547-2.625-4.583-4.539-1.993-3.682-5.877-5.865-9.56-7.854-9.641-5.205-20.715-10.562-31.105-7.086-4.047 1.354-7.543 3.948-10.952 6.516-5.66 4.264-11.724 9.266-12.801 16.27-9.262-4.143-21.244-.833-27.067 7.476-1.331 1.9-2.354 3.996-3.375 6.09-1.203 2.465-2.403 4.927-4.106 7.064a271.936 271.936 0 00-20.88-8.487c-3.136-1.125-6.882-2.12-9.585-.171-2.167 1.562-2.831 4.629-2.195 7.224.636 2.594 2.334 4.794 4.155 6.749A46.965 46.965 0 0055.17 93.307l.508.243c1.635.778 3.315 1.579 4.403 3.008 1.202 1.578 1.276 4.219-.408 5.266-2.488 1.546-2.947 5.016-2.437 7.901.175.986.43 1.962.686 2.938.492 1.878.983 3.752.887 5.678zm67.552 15.427c-6.27 6.583-15.092 10.435-24.113 11.561-9.021 1.126-18.233-.338-26.85-3.234 2.317-.002 3.993-3.037 2.76-4.999-4.75 5.536-11.99 8.129-18.89 10.497-6.232 2.139-13.683.585-18.261-4.154-4.579-4.74-5.818-12.517-2.598-18.267 1.4-2.499 3.774-4.675 6.628-4.92 2.854-.245 5.927 2.121 5.662 4.973-1.588-.276-3.26 1.073-3.325 2.684 6.144-.662 11.92-4.182 15.324-9.34 1.174-1.78 2.067-3.719 2.96-5.66.6-1.303 1.2-2.606 1.887-3.863 1.708-3.129 4.161-6.112 7.56-7.187 2.728-.863 5.677-.384 8.496.102l12.526 2.16c.937-.81-.581-2.107-1.793-2.36-3.915-.818-7.884-1.322-11.854-1.826-3.681-.468-7.363-.935-11.001-1.653-7.562-1.492-15.163-4.22-20.667-9.617 3.734-2.148 6.574-5.797 7.74-9.944.236-.839-.326-2.217-1.007-1.673-.779 2.691-1.622 5.499-3.572 7.511-1.95 2.012-5.374 2.896-7.58 1.17-2.866-2.241-5.879-4.686-7.012-8.142-1.133-3.457.66-8.1 4.273-8.523 1.621-.19 3.206.48 4.702 1.135l15.087 6.614c4.49 1.968 9.047 3.956 13.897 4.67 3.406.501 6.87.36 10.309.219l9.75-.402c.399-.017.808-.035 1.175-.192.98-.418 1.312-1.614 1.528-2.657 2.616-12.626 6.132-25.95 15.642-34.657a32.994 32.994 0 0115.196-7.863c5.558-1.207 11.69-.852 16.475 2.222-8.027.59-15.821 3.976-21.733 9.438-2.483-2.651-7.106-.484-9.087 2.561-3.071 4.72-3.015 11.279.136 15.947 2.652 3.929 3.635 8.617 4.621 13.316.906 4.319 1.814 8.646 4.021 12.403 3.491 5.942 9.992 9.756 16.782 10.939 6.79 1.182 13.829-.053 20.282-2.473-7.222 7.204-18.76 9.696-28.312 6.115a56.38 56.38 0 01-2.082-.845c-2.195-.924-4.397-1.852-6.751-1.824a11.768 11.768 0 005.06 3.149 222.934 222.934 0 01-6.962 10.952c-.311.458-.664.946-1.196 1.101-.592.172-1.21-.123-1.749-.421a41.472 41.472 0 01-11.73-9.678l-6.538 7.954A57.84 57.84 0 00113.8 127.56c-5.781 7.142-14.54 11.794-23.694 12.584 9.476.483 19.069-3.962 24.827-11.503a69.817 69.817 0 0011.429 5.127zm29.968-69.936c2.094-2.283 2.87-5.544 2.691-8.637-.179-3.093-1.219-6.068-2.371-8.944 3-.355 6.047.776 8.436 2.624 2.389 1.848 4.184 4.362 5.656 7 1.785 3.197 3.153 6.654 3.746 10.267 1.398 8.507-1.586 17.18-5.834 24.683-.825 1.456-1.713 2.903-2.917 4.066-1.212 1.171-2.704 2.013-4.233 2.723-6.308 2.931-13.564 3.777-20.376 2.375 4.349-3.62 7.42-8.61 9.376-13.92 1.956-5.31 2.852-10.954 3.367-16.59l.003-.031c.13-1.422.267-2.915 1.077-4.089.268-.388.6-.725.932-1.062.151-.153.302-.307.447-.465zm-7.871 23.473c-1.876 4.39-4.784 8.42-8.725 11.114-.462.316-.957.62-1.513.685-.49.058-.981-.078-1.452-.226-3.351-1.058-6.517-2.933-8.667-5.713-.78-1.008-1.417-2.121-1.985-3.263-4.138-8.314-4.544-18.402-1.086-27.022.165-.411.401-.874.837-.96.562-.112.994.464 1.31.943 2.583 3.914 7.413 5.895 12.097 6.1 4.685.205 9.293-1.126 13.735-2.628-.809 1.98-1.015 4.137-1.22 6.273-.025.27-.051.538-.078.806-.476 4.75-1.376 9.501-3.253 13.89zm-.953-40.782c2.397-.544 5.194-.694 7.025.945.592.53 1.031 1.21 1.393 1.916 2.269 4.433 1.38 10.273-2.105 13.83-4.028 4.113-10.404 4.791-16.141 4.303-2.058-.175-4.175-.492-5.932-1.578-2.274-1.405-3.62-3.882-4.865-6.247 5.527-6.176 12.542-11.331 20.625-13.169zm19.387 74.562c-.752 1.898-1.511 3.823-1.758 5.851-.246 2.027.074 4.203 1.308 5.831-10.233.566-20.632-2.589-28.825-8.746a46.688 46.688 0 006.17-12.215c.569-1.716 2.742-2.432 4.506-2.035 1.624.366 2.988 1.408 4.318 2.424l.344.262c4.355 3.307 9.155 5.973 13.937 8.628zm-71.507 25.931c-1.613 1.817-3.542 3.326-5.512 4.748-4.113 2.97-8.597 5.669-13.596 6.531-7.325 1.264-15.24-1.895-19.68-7.857l15.977-5.96c.383-.143.78-.287 1.187-.264.23.013.452.079.674.145.147.044.295.088.446.117.513.097 1.03.012 1.55-.074.324-.053.648-.107.973-.117 1.196-.035 2.295.511 3.382 1.052.276.137.552.274.828.401 4.237 1.949 9.122 1.633 13.771 1.278zm-23.07-68.362c-.112-.252.007-.542.125-.79a74.565 74.565 0 0112.786-18.749 39.847 39.847 0 017.02 17.17c.19 1.233-.014 2.938-1.252 3.092-5.934.74-11.972.64-17.877-.297-.312-.05-.673-.137-.802-.426zm22.348-.423a53.112 53.112 0 00-7.423-18.95c3.102-1.634 6.77-1.66 10.275-1.65 2.215.007 4.632.085 6.319 1.52l-4.377 12.914c-.743 2.192-1.495 4.446-1.402 6.76l-2.766.044a.72.72 0 01-.292-.036c-.221-.092-.29-.365-.334-.602zm35.6 33.051c.735-1.25 1.435-2.586 1.509-4.034a24.523 24.523 0 0010.585 2.142c.569-.014.549.865.315 1.384-.706 1.573-1.414 3.147-2.231 4.665-.839 1.558-1.792 3.051-2.744 4.543l-2.281 3.576c-.312.489-.635.99-1.099 1.338-1.245.936-3.022.486-4.443-.152a22.229 22.229 0 01-6.379-4.336 53.419 53.419 0 006.768-9.126zm-85.602 3.089c1.097 1.106 1.814 2.524 2.513 3.915l-3.29.47c-1.097.156-2.221.321-3.19.858-.943.521-1.67 1.357-2.31 2.224a21.503 21.503 0 00-4.168 12.623c-.004 1.627-1.927 2.788-3.502 2.376-1.574-.413-2.644-1.977-2.916-3.581-.272-1.605.111-3.246.592-4.801 1.692-5.472 4.718-10.64 9.195-14.212.855-.682 1.8-1.321 2.88-1.494 1.539-.246 3.1.517 4.196 1.622zm138.173 9.16c.381.489.663 1.085.646 1.704-.023.801-.53 1.503-1.076 2.088-3.176 3.404-8.058 4.563-12.681 5.109-.305.036-.625.068-.911-.043-.235-.092-.423-.273-.591-.462-1.115-1.254-1.557-3.008-1.466-4.684.09-1.676.669-3.29 1.389-4.807.152-.319.327-.654.637-.826.246-.136.541-.147.823-.154l5.595-.147c1.378-.036 2.771-.071 4.119.213 1.349.284 2.67.922 3.516 2.009zm-62.36-52.87a53.395 53.395 0 01-5.056-13.437l.921-2.46a27.866 27.866 0 014.259-6.085c.685-.744 1.873-.826 2.819-.468.945.358 1.706 1.07 2.44 1.766l3.304 3.13c.098.093.201.194.233.325.062.247-.142.473-.327.649-1.547 1.47-2.921 3.13-4.024 4.957-1.665 2.763-2.683 5.86-3.686 8.926l-.883 2.698zm8.443-23.726c6.726-3.602 14.083-6.992 21.67-6.181 3.967.423 7.761 2.001 11.065 4.237-9.465-2.433-20.015-.19-27.67 5.885-1.183.94-2.958 1.959-4.012.877-.27-.278-.447-.668-.619-1.047-.276-.608-.541-1.19-1.159-1.247-.59-.054-.852-.854-.602-1.391s.805-.853 1.327-1.133zm-18.478 65.891c1.328 1.275 2.79 2.401 4.248 3.525l5.893 4.539a147.568 147.568 0 00-5.324 4.929 40.338 40.338 0 01-10.824-9.378 92.953 92.953 0 004.741-5.334c.237.678.748 1.221 1.266 1.719zm-37.89-12.277c-3.102 2.424-6.31 4.976-8.017 8.524-.333.694-.609 1.423-.884 2.152-.584 1.548-1.167 3.092-2.3 4.271-.503-.148-.701-.74-.823-1.249l-1.181-4.912c-.16-.662-.32-1.343-.23-2.019.09-.672.422-1.285.748-1.88l3.464-6.33c.077-.142.157-.286.281-.39.307-.254.76-.173 1.147-.078l7.796 1.911zm50.408 21.748a19.635 19.635 0 007.614 4.842c.536-.505 1.572-.226 1.784.479a32.257 32.257 0 01-3.238 3.604c-.521.499-1.357.394-2.06.232a33.507 33.507 0 01-9.768-3.944c-.202-.122-.429-.295-.41-.53.014-.158.138-.281.255-.388l4.241-3.906c.445-.41 1.161-.822 1.582-.389zm54.149-54.566c-.04.479-.107 1.013-.481 1.314a23.373 23.373 0 00-2.691-10.84 18.33 18.33 0 00-1.048-1.756l-.15-.217c-.387-.56-.784-1.132-.878-1.8l4.545 4.748c.418.437.848.892 1.045 1.464.191.551.146 1.152.098 1.733l-.44 5.354zm-5.222-6.033l-1.029-1.297c-1.132-1.427-2.522-2.986-4.343-2.988-1.058 0-2.03.54-2.947 1.067l-1.425.817c-.39.223-.789.455-1.064.81-.791 1.024-.214 2.52.534 3.576.518.73 1.139 1.432 1.962 1.784 1.065.455 2.291.254 3.407-.054a19.594 19.594 0 004.389-1.807c.443-.25.931-.613.909-1.12-.013-.298-.207-.554-.393-.788zm-8.991 1.001c-.177-.282-.36-.583-.363-.916-.006-.65.644-1.088 1.216-1.4l2.031-1.108c.307-.167.626-.338.976-.362.349-.023.737.145.854.474a3.214 3.214 0 002.201 2.001c.324.082.429.53.275.828-.153.297-.466.47-.766.619-1.07.531-2.19.964-3.339 1.292-.461.132-.948.247-1.415.136-.762-.181-1.253-.9-1.67-1.564zm-14.45 10.028c-2.014.235-2.398 3.867-1.462 5.804.192.4.494.81.933.865.751.096 1.165-.83 1.331-1.569l.004-.017c.219-.973 1.197-5.316-.806-5.083zm-10.39 4.765c.403-.94.538-1.993.384-3.003-.072-.47-.213-.947-.527-1.303-.314-.357-.832-.564-1.279-.404-.405.146-.659.542-.851.927a7.896 7.896 0 00-.765 4.423c.084.701.968 1.085 1.638.863.67-.222 1.122-.854 1.4-1.503zm5.939-2.15c.313-.26.708.211.834.597.417 1.268.763 2.56 1.034 3.867.172.826.313 1.684.131 2.507-.258 1.161-1.141 2.106-2.165 2.71-1.024.606-2.189.919-3.338 1.225-.304.081-.685.139-.882-.107-.166-.208-.084-.535.106-.722.185-.184.444-.27.693-.351l.015-.005c1.791-.588 3.706-1.65 4.123-3.49.229-1.01-.05-2.026-.33-3.046-.255-.93-.512-1.862-.386-2.798.02-.142.054-.296.165-.387zm-12.51-4.136c-.472-.654-.094-1.647.59-2.073.684-.426 1.549-.42 2.348-.317.954.123 1.893.366 2.787.72.19.076.395.172.479.359.155.346-.246.725-.625.725-.306 0-.583-.148-.856-.293a8.204 8.204 0 00-.199-.103c-1.493-.74-3.472-.311-4.524.981zm17.207-.226a2.878 2.878 0 012.058.448c.249.169.606-.114.607-.415.002-.3-.223-.553-.459-.74a3.206 3.206 0 00-1.789-.676c-.417-.023-.879.058-1.148.378-.268.32-.187.92.215 1.032.144.04.295.012.443-.014h.001l.072-.013zm-8.806 18.434c.2-.113.464.084.493.312.03.227-.1.444-.248.62-.744.877-2.026 1.148-3.158.942-1.132-.206-2.147-.815-3.102-1.457a36.444 36.444 0 01-1.326-.935c-.451-.333-.932-.74-.986-1.3-.054-.557.661-1.12 1.069-.736 1.004.945 2.03 1.906 3.279 2.491 1.248.585 2.779.74 3.979.063zm-21.49 4.476a57.663 57.663 0 01-5.004-29.248c.016-.17.038-.353.15-.482a.431.431 0 01.634.015c-.053 5.48-.104 10.993.79 16.4.895 5.408 2.794 10.757 6.263 15 .103.127.208.252.312.378h.001l.001.002c.596.715 1.198 1.437 1.536 2.3-2.255-.044-3.74-2.316-4.683-4.365zm4.101-41.044a.82.82 0 00-.271-.202c-.302-.13-.655.003-.919.198-1.053.78-1.057 2.601-.008 3.385.512-.436 1.037-.889 1.337-1.49.3-.602.318-1.397-.139-1.891zm9.076 9.598a12.877 12.877 0 003.804 2.135c4.444 1.576 9.437.586 13.725-1.374a1.804 1.804 0 011.993.376 16.506 16.506 0 01-9.508 3.04c-.746 0-1.49-.051-2.233-.116-1.52-.133-3.051-.328-4.481-.86-1.43-.532-2.764-1.432-3.574-2.726l.274-.475zm48.39 59.891c-.044.151.077.296.189.407l1.689 1.675c.184-.482-.023-1.043-.377-1.418s-.832-.603-1.299-.823a.226.226 0 00-.202.159zM300.074 67.682c2.068.717 4.016-1.148 5.799-2.42 2.758-1.966 6.356-2.71 9.668-1.997.549.118 1.125.295 1.486.725.331.393.425.93.479 1.44a13.955 13.955 0 01-2.177 8.995c-.837 1.281-1.885 2.422-2.634 3.756-.748 1.335-1.176 2.965-.642 4.4 3.17 8.527 1.85 18.585-3.412 26.006-5.262 7.421-14.317 11.994-23.412 11.824-4.652-.087-9.21-1.329-13.592-2.89-1.913-.681-4.015-1.429-5.913-.709a40.15 40.15 0 01-10.801 2.455c-.916.077-1.873.117-2.718-.244-1.265-.541-2.028-1.913-2.174-3.281-.145-1.368.233-2.738.711-4.028 1.441-3.892 5.916-9.973 8.624-11.373-.219-4.726-.195-9.508.827-14.128 1.022-4.62 3.107-9.103 6.528-12.371 1.413-1.35 3.03-2.474 4.724-3.45 8.566-4.932 19.289-5.947 28.629-2.71zm-13.046-.384c-6.55.154-12.927 2.785-18.048 6.873-1.503 1.2-2.916 2.534-4.045 4.092-.889 1.228-1.593 2.583-2.181 3.981-3.487 8.296-2.691 18.263 2.069 25.899.104.167.223.343.408.408.229.08.475-.037.689-.151a125.807 125.807 0 0038.858-32.222c.253-.314.518-.68.464-1.08-.041-.3-.255-.543-.464-.762-4.522-4.742-11.199-7.191-17.75-7.038zm9.158 49.521c7.102-3.334 12.496-9.922 14.803-17.42.522-1.699.898-3.454.934-5.23.031-1.494-.177-2.981-.385-4.46l-.904-6.435c-.08-.569-.628-1.32-1.028-.908a268.576 268.576 0 01-36.208 31.161c-.432.309-.907.691-.93 1.221-.027.613.559 1.058 1.091 1.365 6.796 3.919 15.526 4.04 22.627.706zm-43.805-.873c.517.829 1.637.998 2.613 1.025 5.121.142 10.188-1.359 14.77-3.65 4.581-2.292 8.728-5.358 12.759-8.521 5.375-4.219 10.59-8.64 15.672-13.208 6.294-5.657 12.478-11.657 16.61-19.042.8-1.429 1.538-2.995 1.412-4.627-.125-1.633-1.426-3.28-3.062-3.217a15.749 15.749 0 00-9.526 3.725c-.526.449-.154 1.404.492 1.647.647.242 1.368.001 2-.278.632-.279 1.29-.605 1.977-.529 1.049.117 1.794 1.19 1.856 2.244.062 1.054-.403 2.066-.952 2.968-1.016 1.668-2.343 3.122-3.684 4.542a181.072 181.072 0 01-40.678 32.24c-1.352.785-2.72 1.555-4.175 2.127-.764.3-1.639.541-2.384.198-1.221-.562-1.319-2.277-.952-3.571a9.57 9.57 0 013.338-4.932l-.909-2.56c-3.948 2.522-6.718 6.811-7.393 11.446-.098.669-.142 1.399.216 1.973zm11.225-5.856c.028-.088-.024-.18-.073-.258l-1.53-2.431c-.23-.367-.677-.782-1.023-.521a6.616 6.616 0 00-2.465 3.863c-.065.301-.102.637.062.898.305.485 1.034.377 1.573.184a17.952 17.952 0 003.3-1.579c.064-.039.133-.085.156-.156zm44.364-38.572c-.051-.21-.302-.302-.518-.312-.658-.028-1.344.512-1.303 1.168.042.657 1.018 1.07 1.425.554.123-.156.176-.355.225-.547l.145-.572a.605.605 0 00.026-.291z" clip-rule="evenodd"/>
  <path fill="#fff" fill-rule="evenodd" d="M75.5 215c9.665 0 17.5-6.94 17.5-15.5 0-5.73-3.51-10.733-8.73-13.416a17.08 17.08 0 012.237 1.044c4.063 2.291 6.878 6.66 7.285 11.306.408 4.647-.093 7.726-6.364 13.498-3.258 2.128-6.917 3.759-10.786 4.174-3.87.415-7.967-.48-10.988-2.933a13.898 13.898 0 01-2.514-2.7C66.306 213.27 70.675 215 75.5 215zm-5.031-30.35c-2.999 1.004-5.638 3.062-7.949 5.278-1.338 1.283-2.649 2.706-3.193 4.478-.33 1.077-.357 2.223-.307 3.348.132 2.99.79 5.955 1.936 8.719.581 1.403 1.299 2.767 2.184 4-3.175-2.806-5.14-6.686-5.14-10.973 0-7.011 5.256-12.936 12.469-14.85zm0 0a12.458 12.458 0 012.146-.517c.78-.115 1.562-.15 2.345-.126a19.569 19.569 0 00-4.491.643zm4.49-.643c.18-.005.36-.007.541-.007 3.196 0 6.192.759 8.77 2.084-1.198-.463-2.442-.819-3.688-1.139-1.84-.474-3.732-.879-5.622-.938zm8.044 17.678c-.474.177-.95.355-1.439.269-1.323-.233-1.56-2.048-1.266-3.36.841-3.754 3.458-7.069 6.913-8.759-.782-1.419-2.86-1.523-4.33-.841-.802.372-1.508.907-2.216 1.443-.589.446-1.178.892-1.824 1.245-.707.387-1.545.661-2.315.42-1.266-.396-1.75-2.054-1.335-3.315.415-1.26 1.45-2.201 2.443-3.08a20.93 20.93 0 00-10.224 3.101c-2.398 1.483-4.673 3.915-4.355 6.716a17.934 17.934 0 016.777-3.39c.523-.134 1.18-.201 1.506.228.248.325.177.793.018 1.17-.487 1.157-1.561 1.838-2.65 2.528-.67.425-1.346.854-1.894 1.4-.188.188-.37.405-.415.667-.09.514.4.983.915 1.069.516.086 1.032-.101 1.52-.286l3.044-1.148c.734-.277 1.606-.541 2.26-.106.675.45.739 1.475.357 2.191-.382.717-1.083 1.198-1.757 1.65l-4.878 3.268c-1.36.913-2.886 2.143-2.756 3.776.121 1.538 1.813 2.583 3.352 2.484 1.54-.099 2.894-1.04 4.03-2.083.31-.286.614-.583.916-.879v-.001c.803-.787 1.606-1.574 2.564-2.154.861-.522 2.09-.811 2.789-.087.54.559.488 1.458.285 2.209a7.81 7.81 0 01-4.198 4.977 13.84 13.84 0 005.062.211c.959-.139 1.951-.404 2.645-1.081.693-.677.962-1.867.36-2.627-.897-1.132-.861-2.79-.288-4.116.573-1.327 1.597-2.398 2.6-3.438-.287-.592-1.126-.633-1.754-.435-.154.048-.308.106-.462.164zm8.83-4.291c.229 2.258.196 4.615-.705 6.698-.594 1.372-1.535 2.559-2.465 3.729-1.217 1.53-2.554 3.144-4.431 3.692.66-.602.658-1.781-.004-2.382-.88-.799-.948-2.214-.48-3.307.468-1.093 1.358-1.94 2.225-2.754.785-.736.313-2.197-.656-2.665-.97-.468-2.141-.185-3.095.315-.278.146-.636-.066-.757-.355-.12-.29-.069-.62-.003-.926.786-3.65 3.447-6.843 6.896-8.274 2.352.875 3.223 3.731 3.476 6.229zm-22.31-4.076a44.888 44.888 0 00-5.666 2.834c-.433.256-.87.527-1.187.917-.427.528-.589 1.216-.72 1.882-.427 2.151-.647 4.466.256 6.464.288.638.682 1.221 1.075 1.801.115.171.247.354.445.412.199.057.46-.102.414-.304-.144-.62.326-1.203.79-1.64 1.201-1.131 2.588-2.049 3.972-2.965 1.742-1.154 3.48-2.305 4.842-3.875-.37-.439-1.073-.233-1.601-.007a28.217 28.217 0 01-3.877 1.331c-.683.18-1.443.326-2.065-.006-.911-.485-1.06-1.814-.578-2.728.48-.913 1.396-1.503 2.278-2.039l.013-.008c.879-.534 1.798-1.093 2.324-1.975-.096-.252-.466-.197-.715-.094zm8.57 14.506c-.094 1.103-1.026 1.92-1.889 2.613l-2.446 1.966c-.236.19-.485.386-.782.447-.256.053-.52.001-.775-.059-.852-.2-1.686-.482-2.486-.84 1.688-.435 2.957-1.653 4.238-2.883.867-.832 1.74-1.67 2.752-2.275.153-.091.314-.179.492-.196.576-.055.945.65.896 1.227zm.444-21.346l-1.674 1.852c-.443.489-.917 1.135-.67 1.746.18.451.716.679 1.2.641.485-.037.926-.285 1.332-.552.395-.259.78-.544 1.164-.829 1.024-.758 2.047-1.517 3.275-1.793l-3.513-1.28c-.244-.089-.516-.178-.756-.079-.144.059-.253.178-.358.294z" clip-rule="evenodd"/>
</svg>
