<svg data-bbox="22 18.983 146 162.001" viewBox="0 0 200 200" height="200" width="200" xmlns="http://www.w3.org/2000/svg" data-type="color">
    <g>
        <path fill="#F6B33B" clip-rule="evenodd" fill-rule="evenodd" d="M90.139 83.198V19.581l77.02 44.551v63.596l-77.02-44.53z" data-color="1"/>
        <path d="M90.389 82.878V20.52l76.538 43.911v62.379L90.389 82.878zm-1.072-63.297v63.915c26.227 15.056 51.898 29.823 78.126 44.858L168 63.832c-26.227-15.056-51.919-29.793-78.146-44.849l-.537.598z" fill="#262521" data-color="2"/>
        <path fill="#6D9149" clip-rule="evenodd" fill-rule="evenodd" d="M22.536 121.884l133.004 12.71v13.713l-55.393 31.777-77.611-44.487v-13.713z" data-color="3"/>
        <path clip-rule="evenodd" fill-rule="evenodd" opacity=".3" d="M22.536 121.884l133.004 12.71v13.713l-55.393 31.777-77.611-44.487v-13.713z"/>
        <path d="M23.072 122.743l131.933 12.604v12.944l-54.858 31.457-77.075-44.168v-12.837zm132.511 11.602L22.01 121.571 22 136.178c26.057 14.951 52.091 29.879 78.147 44.806 18.636-10.704 37.293-21.389 55.929-32.095v-14.502l-.493-.042z" fill="#262521" data-color="2"/>
        <path fill="#6D9149" clip-rule="evenodd" fill-rule="evenodd" d="M77.929 90.043l77.611 44.551-55.393 31.776-77.611-44.486 55.393-31.841z" data-color="3"/>
        <path d="M155.798 134.125l-77.868-44.7c-18.62 10.725-37.261 21.43-55.902 32.136l-.017.01c.108.062.097.206.097.206.069.04-.108.415-.038.454 26.051 14.931 52.029 29.824 78.079 44.758a46466.764 46466.764 0 0 1 56.466-32.394l-.817-.47zm-55.651 31.627l-76.539-43.868 54.321-31.223 76.539 43.933-54.321 31.158z" fill="#262521" data-color="2"/>
        <path d="M140.035 134.168c2.531 1.109 3.088 3.178 1.115 4.564-1.93 1.45-5.598 1.707-8.192.618-2.531-1.087-3.046-3.177-1.115-4.607 1.973-1.406 5.64-1.726 8.192-.575z" fill="#F4E8CA" clip-rule="evenodd" fill-rule="evenodd" data-color="4"/>
        <path d="M139.821 134.659c.773.341 1.33.767 1.673 1.215.172.256.279.49.301.746.043.234 0 .491-.107.725-.151.32-.429.661-.858.96-.879.661-2.166 1.045-3.539 1.152-1.415.106-2.895-.086-4.117-.598-.73-.32-1.265-.705-1.587-1.13-.193-.278-.321-.533-.364-.812-.043-.255 0-.532.107-.788.15-.341.429-.661.836-.981.922-.639 2.252-1.023 3.645-1.129 1.394-.086 2.831.106 4.01.64zm2.53.596c-.429-.596-1.137-1.151-2.102-1.557-1.33-.619-2.96-.832-4.503-.725-1.609.106-3.131.554-4.225 1.322v.021c-.558.405-.944.895-1.158 1.386a2.347 2.347 0 0 0-.193 1.366c.064.447.257.896.557 1.3.429.555 1.115 1.089 2.016 1.472h.021c1.373.575 3.024.81 4.59.682 1.587-.107 3.067-.577 4.117-1.365.58-.406.987-.895 1.201-1.386.171-.427.235-.855.193-1.28a2.814 2.814 0 0 0-.514-1.236z" fill="#262521" data-color="2"/>
        <path d="M108.36 112.969c15.291 7.23 17.907 19.77 5.876 28.066-12.053 8.253-34.27 9.148-49.538 1.941-15.291-7.23-17.907-19.77-5.876-28.024 12.095-8.296 34.248-9.191 49.538-1.983z" fill="#262521" clip-rule="evenodd" fill-rule="evenodd" data-color="2"/>
        <path d="M108.146 113.459c4.933 2.324 8.514 5.205 10.68 8.317 1.351 1.941 2.145 3.967 2.359 6.015.236 2.027-.128 4.051-1.05 6.014-1.158 2.431-3.218 4.734-6.198 6.803-5.941 4.073-14.411 6.312-23.289 6.674-8.9.343-18.165-1.236-25.734-4.798-4.955-2.345-8.536-5.246-10.701-8.36-1.352-1.941-2.123-3.945-2.337-5.972-.237-2.003.128-4.03 1.05-5.971 1.158-2.431 3.217-4.734 6.219-6.782 5.961-4.094 14.411-6.378 23.289-6.717 8.877-.362 18.142 1.216 25.712 4.777zm11.559 7.721c-2.273-3.263-6.004-6.27-11.108-8.68-7.72-3.648-17.178-5.247-26.207-4.884-9.071.361-17.734 2.687-23.868 6.909-3.153 2.155-5.319 4.607-6.563 7.208-1.008 2.112-1.394 4.33-1.159 6.527.236 2.195 1.093 4.393 2.531 6.461 2.273 3.284 6.004 6.292 11.129 8.723 7.721 3.646 17.178 5.245 26.208 4.883 9.071-.341 17.756-2.665 23.868-6.846 3.152-2.175 5.319-4.628 6.562-7.23a12.058 12.058 0 0 0 1.158-6.589c-.235-2.195-1.093-4.392-2.551-6.482z" fill="#262521" data-color="2"/>
        <path d="M93.799 121.755c5.062 2.41 5.94 6.591 1.931 9.341-4.053 2.774-11.453 3.051-16.514.641-5.104-2.388-5.983-6.568-1.93-9.341 3.989-2.773 11.409-3.05 16.513-.641z" fill="#6D9149" clip-rule="evenodd" fill-rule="evenodd" data-color="3"/>
        <path d="M93.564 122.225c1.565.746 2.701 1.664 3.388 2.645a3.87 3.87 0 0 1 .729 1.855 3.081 3.081 0 0 1-.321 1.834c-.366.747-1.008 1.472-1.931 2.112-1.93 1.322-4.697 2.047-7.591 2.175-2.896.108-5.941-.405-8.386-1.578-1.609-.746-2.766-1.684-3.453-2.665-.407-.597-.642-1.216-.707-1.834-.065-.598.043-1.195.322-1.793.364-.745 1.007-1.492 1.972-2.153 1.909-1.323 4.654-2.047 7.549-2.154 2.917-.128 5.963.405 8.429 1.556zm4.266 2.026c-.794-1.109-2.058-2.154-3.796-2.986-2.637-1.237-5.875-1.791-8.942-1.664-3.088.129-6.026.917-8.106 2.346-1.137.768-1.91 1.643-2.338 2.58-.364.769-.514 1.557-.428 2.368.085.789.385 1.556.899 2.303.794 1.13 2.102 2.197 3.882 3.029 2.594 1.237 5.812 1.792 8.879 1.663 3.088-.106 6.047-.895 8.149-2.345 1.093-.747 1.865-1.621 2.294-2.517.386-.789.514-1.6.429-2.409-.085-.811-.407-1.6-.922-2.368z" fill="#262521" data-color="2"/>
        <path fill="#F4E8CA" clip-rule="evenodd" fill-rule="evenodd" d="M31.972 121.244l4.632 2.601 2.552-1.493-4.568-2.644-2.616 1.536z" data-color="4"/>
        <path d="M31.714 121.713l4.89 2.73 3.624-2.091-5.64-3.263-3.689 2.154.815.47zm4.89 1.514l-3.561-2.003 1.544-.895 3.517 2.025-1.5.873z" fill="#262521" data-color="2"/>
        <path fill="#F4E8CA" clip-rule="evenodd" fill-rule="evenodd" d="M38.793 125.104l4.567 2.644 2.573-1.535-4.588-2.58-2.552 1.471z" data-color="4"/>
        <path d="M38.513 125.573l4.868 2.794 3.603-2.154-5.639-3.2-3.625 2.091.793.469zm4.847 1.557l-3.496-2.026 1.481-.874 3.516 2.004-1.501.896z" fill="#262521" data-color="2"/>
        <path fill="#F4E8CA" clip-rule="evenodd" fill-rule="evenodd" d="M77.673 94.671l11.386 6.569-4.053 2.282-11.387-6.527 4.054-2.324z" data-color="4"/>
        <path d="M77.673 95.29l10.314 5.951-2.981 1.663-10.315-5.908 2.982-1.706zm11.666 5.481l-11.666-6.717-5.126 2.942c4.16 2.388 8.321 4.757 12.46 7.123l5.127-2.878-.795-.47z" fill="#262521" data-color="2"/>
        <path d="M137.805 137.069a.888.888 0 0 0 .043-.469v-3.157h-2.681v3.263a.732.732 0 0 0 .193.577c.107.127.257.233.45.318.257.107.558.149.858.129.3-.022.6-.129.815-.278.151-.106.258-.256.322-.383zm-1.03-.428c-.065 0-.129.022-.193.022a.592.592 0 0 1-.344-.043v-2.111h.536v2.132z" fill="#262521" data-color="2"/>
        <path fill="#F6B33B" clip-rule="evenodd" fill-rule="evenodd" d="M89.853 83.176l-11.945 6.867 77.611 44.551 11.945-6.866-77.611-44.552z" data-color="1"/>
        <path d="M88.095 126.619v.042c0 .191-.108.384-.344.532-.558.385-1.566.427-2.252.085-.429-.192-.622-.49-.622-.768v-2.772l1.479-.938 1.738.916v2.903z" fill="#8BCEC0" clip-rule="evenodd" fill-rule="evenodd" data-color="5"/>
        <path d="M87.558 126.619v.042l-.107.107c-.193.128-.494.191-.794.213-.322 0-.666-.043-.923-.171-.129-.064-.235-.128-.278-.213l-.043-.043.021-2.516.965-.618 1.158.618v2.581zm1.073.02v-3.24l-2.295-1.216-1.994 1.258v3.071c0 .278.085.534.279.768.15.17.365.341.643.49.429.192.944.277 1.437.256.492-.021.986-.149 1.351-.383.171-.128.299-.257.408-.406.106-.192.171-.384.171-.575v-.023z" fill="#262521" data-color="2"/>
        <path d="M87.494 122.758c.686.32.793.895.257 1.28-.558.362-1.566.405-2.252.085-.708-.342-.816-.896-.257-1.279.536-.385 1.545-.428 2.252-.086z" fill="#8BCEC0" clip-rule="evenodd" fill-rule="evenodd" data-color="5"/>
        <path d="M87.258 123.227a.78.78 0 0 1 .279.214.068.068 0 0 1 .021.043c-.021.043-.043.064-.107.107-.193.127-.494.213-.794.213a1.883 1.883 0 0 1-.923-.171c-.15-.064-.257-.128-.3-.213l-.021-.021a.353.353 0 0 1 .128-.129c.193-.128.472-.192.772-.213.345 0 .666.042.945.17zm1.158-.383c-.15-.235-.385-.428-.707-.576a3.216 3.216 0 0 0-1.415-.256c-.515.022-1.008.15-1.373.384-.215.17-.365.341-.471.533a1.079 1.079 0 0 0-.087.576c.022.192.087.362.193.533.151.213.386.405.708.553.429.214.944.299 1.437.278.492-.022.986-.149 1.351-.406.214-.149.364-.319.471-.512.085-.192.129-.384.108-.576a1.19 1.19 0 0 0-.215-.531z" fill="#262521" data-color="2"/>
        <path fill="#F6B33B" clip-rule="evenodd" fill-rule="evenodd" d="M89.549 19.581l-11.946 6.867.022 63.595 11.945-6.867-.021-63.595z" data-color="1"/>
        <path d="M144.067 130.67l-29.016 16.57-2.124-1.215 30.345-17.424c.129-.107.365-.107.644.064.429.255.815.832.815 1.258.001.406-.385.575-.664.747z" fill="#8BCEC0" data-color="5"/>
        <path d="M143.788 130.201l-28.737 16.444-1.051-.619 29.551-16.954c.022 0 .065.021.107.042.129.085.279.235.365.404.108.149.172.3.172.406 0 .064-.172.149-.3.233-.021.001-.085.044-.107.044zm-28.457 17.508l29.08-16.634c.407-.234.858-.469.858-1.151 0-.299-.129-.662-.321-.96a2.79 2.79 0 0 0-.729-.769h-.022a1.229 1.229 0 0 0-.6-.192.862.862 0 0 0-.622.17l-31.117 17.85 3.195 1.834.278-.148z" fill="#262521" data-color="2"/>
        <path d="M112.607 144.809c.535-.256.622-.341 1.093-.15.685.256 1.779 1.515 1.951 2.602.129.746-.193 1.152-.578 1.429l-5.404 3.05-2.596-1.706v-1.984l5.534-3.241z" fill="#F4E8CA" clip-rule="evenodd" fill-rule="evenodd" data-color="4"/>
        <path d="M112.864 145.279l.129-.064c.236-.107.299-.149.514-.064.279.106.666.447 1.008.916.3.406.536.853.601 1.28.043.256.021.448-.043.576a1.005 1.005 0 0 1-.28.32l-5.103 2.878-2.08-1.364v-1.408l5.254-3.07zm-.342-1.023c-1.91.937-4.097 2.388-5.984 3.476v2.58l3.131 2.069 5.683-3.241.043-.021a1.79 1.79 0 0 0 .643-.726c.151-.321.215-.725.151-1.216-.108-.597-.429-1.215-.816-1.749-.45-.598-1.03-1.087-1.48-1.279-.643-.235-.815-.172-1.371.107z" fill="#262521" data-color="2"/>
        <path d="M110.011 150.525c.172 1.087-.429 1.706-1.329 1.364-.901-.362-1.758-1.514-1.952-2.622-.171-1.089.429-1.707 1.33-1.366.901.364 1.78 1.515 1.951 2.624z" fill="#F4E8CA" clip-rule="evenodd" fill-rule="evenodd" data-color="4"/>
        <path d="M109.476 150.61c.043.256.043.469-.022.618-.021.087-.063.129-.106.172a.172.172 0 0 1-.108.043c-.108.021-.215 0-.364-.064-.344-.129-.708-.448-1.009-.832-.3-.405-.535-.897-.599-1.366a1.438 1.438 0 0 1 .021-.619c.043-.085.064-.128.107-.17.043-.021.086-.043.129-.043.086-.022.215 0 .343.064.366.128.708.447 1.009.831.299.406.534.898.599 1.366zm.965 1.003c.128-.321.171-.724.085-1.173-.085-.638-.385-1.279-.794-1.812-.408-.555-.944-1.001-1.48-1.215a1.679 1.679 0 0 0-.9-.107c-.257.042-.471.128-.644.298a1.414 1.414 0 0 0-.407.576c-.129.32-.171.725-.086 1.173.107.639.386 1.28.794 1.812.407.555.943 1.003 1.48 1.215.322.128.622.15.901.107.257-.043.472-.128.664-.298.172-.151.301-.342.387-.576z" fill="#262521" data-color="2"/>
        <path fill="#262521" d="M100.683 166.37v13.714h-1.072V166.37h1.072z" data-color="2"/>
        <path d="M168 127.42l-.001-63.587C141.772 48.777 116.08 34.04 89.853 18.984l-.257.148-12.224 7.016v.595c0 20.997.021 41.994.021 62.991l-.536.308.536.308v.61l.531-.305c25.68 14.754 51.38 29.507 77.08 44.24v.616c4.332-2.495 8.664-5.001 12.995-7.476l.001-.615zm-11.928-5.616l10.319 5.923-10.315 5.928-.004-11.851zm0-1.23l-.017-49.276 10.873-6.249.021 61.768a48647.16 48647.16 0 0 0-10.877-6.243zM90.41 82.899c0-16.39-.012-32.441-.018-48.675a89815.717 89815.717 0 0 0 64.591 37.065c.016 16.234.015 32.451.016 48.67-21.571-12.379-42.901-24.61-64.589-37.06zm70.97-15.887l-5.869 3.364-65.119-37.377-.002-12.491 76.002 43.624-5.012 2.88zM83.371 23.925l5.946-3.405.004 11.863-10.34-5.935 4.39-2.523zm-4.927 3.435l10.877 6.248.017 49.268-10.872 6.244-.022-61.76zm.543 62.687l10.884-6.241L155 121.189c0 4.163.004 8.329.004 12.492L78.987 90.047z" fill="#262521" data-color="2"/>
        <path fill="#F4E8CA" clip-rule="evenodd" fill-rule="evenodd" d="M98.924 160.377l-4.589-2.643 2.552-1.429 4.589 2.644-2.552 1.428z" data-color="4"/>
        <path d="M98.924 159.759l-3.517-2.025 1.48-.832 3.516 2.026-1.479.831zm-4.846-1.578l4.846 2.816 3.625-2.048-5.64-3.263-3.645 2.026.814.469z" fill="#262521" data-color="2"/>
        <path fill="#F4E8CA" clip-rule="evenodd" fill-rule="evenodd" d="M92.148 156.518l-4.568-2.666 2.553-1.472 4.588 2.645-2.573 1.493z" data-color="4"/>
        <path d="M92.148 155.9l-3.517-2.048 1.502-.853 3.516 2.026-1.501.875zm-4.846-1.579l4.846 2.794 3.625-2.089-5.64-3.264-3.625 2.091.794.468z" fill="#262521" data-color="2"/>
        <path fill="#F4E8CA" clip-rule="evenodd" fill-rule="evenodd" d="M103.814 157.626l-4.632-2.644 2.616-1.493 4.567 2.645-2.551 1.492z" data-color="4"/>
        <path d="M103.814 157.009l-3.56-2.027 1.544-.874 3.517 2.026-1.501.875zm-4.89-1.579l4.889 2.794 3.625-2.089-5.64-3.264-3.688 2.091.814.468z" fill="#262521" data-color="2"/>
        <path fill="#F4E8CA" clip-rule="evenodd" fill-rule="evenodd" d="M97.059 153.703l-4.633-2.645 2.596-1.493 4.589 2.645-2.552 1.493z" data-color="4"/>
        <path d="M97.059 153.084l-3.56-2.026 1.523-.875 3.517 2.027-1.48.874zm-4.911-1.577l4.911 2.814 3.624-2.111-5.64-3.263-3.688 2.111.793.449z" fill="#262521" data-color="2"/>
    </g>
</svg>
